<?xml version="1.0" encoding="utf-8"?>
<!-- Generator: Adobe Illustrator 28.1.0, SVG Export Plug-In . SVG Version: 6.00 Build 0)  -->
<svg version="1.1" id="Layer_1" xmlns="http://www.w3.org/2000/svg" xmlns:xlink="http://www.w3.org/1999/xlink" x="0px" y="0px"
	 viewBox="0 0 500 200" style="enable-background:new 0 0 500 200;" xml:space="preserve">
<style type="text/css">
	.st0{fill:#FF504D;}
	.st1{fill:#FFFFFF;}
</style>
<g>
	<g id="Layer_1_00000039838568428350346670000003925051226952452241_">
		
			<image style="overflow:visible;opacity:0.5;enable-background:new    ;" width="310" height="106" xlink:href="D56DD9240FFCA50F.png"  transform="matrix(1 0 0 1 97 50)">
		</image>
		<path class="st0" d="M119.7,62.5h260.6c5.4,0,9.7,4.3,9.7,9.7v55.6c0,5.4-4.3,9.7-9.7,9.7H119.7c-5.4,0-9.7-4.3-9.7-9.7V72.2
			C110,66.8,114.3,62.5,119.7,62.5z"/>
		<path class="st1" d="M200.1,112.2V88h8.5c2.4-0.1,4.7,0.5,6.7,1.7c2.3,2,2.9,5.4,1.3,8.1c-0.6,0.9-1.5,1.6-2.5,2
			c1.1,0.3,2.2,0.9,2.9,1.8c0.7,1,1.1,2.2,1.1,3.5c0.1,2-0.7,4-2.2,5.3c-1.9,1.3-4.1,1.9-6.4,1.8L200.1,112.2z M205.1,98.1h3.7
			c2.5,0,3.8-1,3.8-3c0-0.9-0.3-1.7-1-2.3c-0.9-0.6-1.9-0.9-3-0.8h-3.5V98.1z M205.1,101.7v6.5h4.3c1,0.1,2-0.3,2.7-0.9
			c0.7-0.5,1.1-1.4,1-2.3c0-2.2-1.1-3.3-3.4-3.3L205.1,101.7z"/>
		<path class="st1" d="M220.8,103c0-1.6,0.3-3.2,1-4.7c0.7-1.4,1.7-2.5,3-3.3c1.4-0.8,2.9-1.1,4.5-1.1c2.2-0.1,4.3,0.7,5.9,2.2
			c1.6,1.6,2.5,3.8,2.6,6.1v1.2c0.1,2.4-0.7,4.8-2.3,6.6c-1.6,1.7-3.9,2.6-6.2,2.5c-2.3,0.1-4.6-0.8-6.2-2.5
			c-1.6-1.6-2.3-3.9-2.3-6.7V103z M225.6,103.4c-0.1,1.4,0.2,2.7,0.9,3.9c0.7,0.9,1.7,1.4,2.8,1.3c1.1,0.1,2.1-0.4,2.7-1.3
			c0.7-0.9,1-2.3,1-4.3c0.1-1.4-0.3-2.7-1-3.9c-0.6-0.9-1.6-1.4-2.7-1.3c-1.1-0.1-2.1,0.4-2.8,1.3
			C225.8,100.4,225.5,101.9,225.6,103.4z"/>
		<path class="st1" d="M240,103c0-1.6,0.3-3.2,1-4.7c0.7-1.4,1.7-2.5,3-3.3c1.4-0.7,2.9-1.1,4.5-1.1c2.2-0.1,4.3,0.7,5.9,2.2
			c1.6,1.6,2.5,3.8,2.6,6.1v1.2c0.1,2.4-0.7,4.8-2.3,6.6c-1.6,1.7-3.9,2.6-6.2,2.5c-2.3,0.1-4.6-0.8-6.2-2.5
			c-1.6-1.9-2.4-4.3-2.3-6.7V103z M244.8,103.4c-0.1,1.4,0.2,2.7,1,3.9c1.2,1.5,3.4,1.7,4.9,0.5c0.2-0.1,0.3-0.3,0.5-0.5
			c0.7-0.9,1-2.3,1-4.3c0.1-1.4-0.3-2.7-1-3.9c-1.2-1.5-3.4-1.7-4.9-0.5c-0.2,0.1-0.3,0.3-0.5,0.5
			C245,100.4,244.7,101.9,244.8,103.4z"/>
		<path class="st1" d="M266.5,105l-1.7,1.7v5.5H260V86.7h4.8v14.1l0.9-1.2l4.6-5.4h5.8l-6.5,7.5l7,10.5h-5.5L266.5,105z"/>
		<path class="st1" d="M306.6,112.2h-5l-9.7-15.9v15.9h-5V88h5l9.7,16V88h5V112.2z"/>
		<path class="st1" d="M309.9,103c0-1.6,0.3-3.2,1-4.7c0.7-1.3,1.7-2.5,2.9-3.3c1.4-0.7,2.9-1.1,4.5-1.1c2.2-0.1,4.4,0.7,6,2.2
			c1.6,1.6,2.5,3.8,2.5,6.1v1.2c0.1,2.4-0.7,4.8-2.3,6.6c-1.6,1.7-3.9,2.6-6.2,2.5c-2.3,0.1-4.6-0.8-6.2-2.5
			c-1.6-1.6-2.3-3.9-2.3-6.7L309.9,103z M314.6,103.4c-0.1,1.4,0.3,2.7,1,3.9c0.7,0.9,1.7,1.4,2.8,1.3c1.1,0,2.1-0.4,2.7-1.3
			c0.7-1.3,1.1-2.8,1-4.3c0-1.4-0.3-2.7-1-3.9c-0.7-0.9-1.7-1.4-2.8-1.3c-1.1,0-2.1,0.4-2.7,1.3
			C314.9,100.4,314.5,101.9,314.6,103.4z"/>
		<path class="st1" d="M345.4,105.7l2.4-11.5h4.6l-4.5,18h-4.1l-3.4-11.3l-3.4,11.3h-4l-4.6-18h4.7l2.3,11.4l3.3-11.4h3.5
			L345.4,105.7z"/>
		<path class="st1" d="M175.3,86.1h-1.8v-3.5H170v3.5h-14.1v-3.5h-3.6v3.5h-1.7c-1.9,0-3.5,1.6-3.5,3.5c0,0,0,0.1,0,0.1v24.7
			c0.1,1.9,1.7,3.5,3.6,3.5h24.7c1.9,0,3.5-1.6,3.5-3.5V89.7C178.9,87.7,177.3,86.1,175.3,86.1z M175.3,114.4h-24.7V95h24.7V114.4z
			 M154.1,98.5h8.8v8.8h-8.8V98.5z"/>
	</g>
</g>
</svg>
