<svg xmlns="http://www.w3.org/2000/svg" xmlns:xlink="http://www.w3.org/1999/xlink" viewBox="0 0 332.31 213.04"><defs><style>.a{fill:none;}.b{clip-path:url(#a);}.c{fill:#ff5000;}</style><clipPath id="a" transform="translate(-13.69 -34.56)"><rect class="a" width="360" height="288"/></clipPath></defs><title>WildcatCircleLogo</title><g class="b"><g class="b"><path class="c" d="M87.13,211.24q-4.23,0-6.13,1.89-1.68,1.63-1.68,5v23A5.63,5.63,0,0,0,81.49,246a9,9,0,0,0,5.6,1.63,8.76,8.76,0,0,0,5.58-1.68,5.74,5.74,0,0,0,2.14-4.79v-23a6.67,6.67,0,0,0-1.9-5.1q-1.9-1.79-5.78-1.78m1.1,30.34a1.09,1.09,0,0,1-.28.79,1.17,1.17,0,0,1-.87.28,1.26,1.26,0,0,1-.89-0.28,1,1,0,0,1-.3-0.79V217.16a1,1,0,0,1,.3-0.82,1.34,1.34,0,0,1,.89-0.26,1.25,1.25,0,0,1,.87.26,1.07,1.07,0,0,1,.28.82v24.42Z" transform="translate(-13.69 -34.56)"/><polygon class="c" points="82.49 212.64 89.24 212.64 89.24 195.5 94.58 195.5 94.58 191.11 89.24 191.11 89.24 181.47 95.19 181.47 95.19 176.94 82.49 176.94 82.49 212.64"/><polygon class="c" points="96.3 212.64 103.04 212.64 103.04 195.5 108.38 195.5 108.38 191.11 103.04 191.11 103.04 181.47 109 181.47 109 176.94 96.3 176.94 96.3 212.64"/><path class="c" d="M147.21,240.71V233a6,6,0,0,0-.61-3,5.79,5.79,0,0,0-3.55-2.4,6.35,6.35,0,0,0,3.68-2.84,6.27,6.27,0,0,0,.48-2.74v-4.26a5.91,5.91,0,0,0-1.87-4.57,7.43,7.43,0,0,0-5.23-1.73h-8.38v35.7h6.75V230a3.7,3.7,0,0,1,1.59.28,1.67,1.67,0,0,1,.57,1.61v8.77a31.3,31.3,0,0,0,.22,4.26,5,5,0,0,0,.79,2.27h6.75q-0.71-.61-1-3.63-0.09-1-.18-2.86m-6.57-17a1.76,1.76,0,0,1-.78,1.72,3.92,3.92,0,0,1-1.38.15V216a3.71,3.71,0,0,1,1.59.28,1.65,1.65,0,0,1,.57,1.6v5.84Z" transform="translate(-13.69 -34.56)"/><path class="c" d="M157.13,211.24q-4.23,0-6.13,1.89-1.68,1.63-1.68,5v23a5.63,5.63,0,0,0,2.16,4.79,9,9,0,0,0,5.6,1.63,8.76,8.76,0,0,0,5.58-1.68,5.74,5.74,0,0,0,2.14-4.79v-23a6.67,6.67,0,0,0-1.9-5.1q-1.9-1.79-5.78-1.78m1.1,30.34a1.09,1.09,0,0,1-.27.79,1.17,1.17,0,0,1-.87.28,1.26,1.26,0,0,1-.89-0.28,1,1,0,0,1-.3-0.79V217.16a1,1,0,0,1,.3-0.82,1.34,1.34,0,0,1,.89-0.26,1.25,1.25,0,0,1,.87.26,1.07,1.07,0,0,1,.27.82v24.42Z" transform="translate(-13.69 -34.56)"/><path class="c" d="M170.82,211.49l-5.09,35.7h6.66l1.18-9.59h3.12l1.18,9.59h6.66l-5.08-35.7h-8.62Zm3.34,21.22L175.11,222l1,10.71h-1.94Z" transform="translate(-13.69 -34.56)"/><path class="c" d="M194.1,211.49h-8.51v35.7h8.56a6.71,6.71,0,0,0,5.25-2.16,7,7,0,0,0,1.76-4.89V218.54a7,7,0,0,0-1.81-4.94,6.79,6.79,0,0,0-5.25-2.1m0.26,29.27a1.86,1.86,0,0,1-.69,1.74,3.46,3.46,0,0,1-1.34.15V216a3,3,0,0,1,1.34.2,1.81,1.81,0,0,1,.69,1.69v22.83Z" transform="translate(-13.69 -34.56)"/><path class="c" d="M222.86,212.21q-1.59-.71-6-0.71h-6.62v35.7h6.57V234a22,22,0,0,0,5.43-.23,7.91,7.91,0,0,0,2.15-1.58q1.33-1.25,1.33-4.51v-9.89q0-4.33-2.91-5.61m-3.66,14.88a1.73,1.73,0,0,1-.87,1.75,4.2,4.2,0,0,1-1.47.15V216.54a4,4,0,0,1,1.51.21,1.71,1.71,0,0,1,.82,1.7v8.64Z" transform="translate(-13.69 -34.56)"/><path class="c" d="M231.65,211.49l-5.09,35.7h6.66l1.18-9.59h3.12l1.17,9.59h6.66l-5.08-35.7h-8.62ZM235,232.71l1-10.71,1,10.71H235Z" transform="translate(-13.69 -34.56)"/><path class="c" d="M262,240.71V233a6,6,0,0,0-.61-3,5.79,5.79,0,0,0-3.55-2.4,6.35,6.35,0,0,0,3.68-2.84,6.27,6.27,0,0,0,.48-2.74v-4.26a5.91,5.91,0,0,0-1.87-4.57,7.43,7.43,0,0,0-5.23-1.73H246.5v35.7h6.75V230a3.69,3.69,0,0,1,1.59.28,1.67,1.67,0,0,1,.58,1.61v8.77a31.11,31.11,0,0,0,.22,4.26,5,5,0,0,0,.79,2.27h6.75q-0.71-.61-1-3.63-0.09-1-.18-2.86m-6.57-17a1.76,1.76,0,0,1-.78,1.72,3.93,3.93,0,0,1-1.38.15V216a3.71,3.71,0,0,1,1.59.28,1.65,1.65,0,0,1,.58,1.6v5.84Z" transform="translate(-13.69 -34.56)"/><polygon class="c" points="266.51 176.93 260.25 176.93 257.25 188.87 257.25 176.93 250.5 176.93 250.5 212.63 257.25 212.63 257.25 199.38 259.81 212.63 267.31 212.63 262.37 193.23 266.51 176.93"/><path class="c" d="M148.76,81.16a3.42,3.42,0,0,0,.57.14q2-2.93,4-5.9l-0.3,0a2.79,2.79,0,0,1-.15-0.36c-0.26-.75.16-0.78-1.06-1.31a2.54,2.54,0,0,1,.81-1.38l-0.4-.28a19.28,19.28,0,0,1-2,.83l0.8,0.55c-0.38.67-.44,0.44-0.8,1.11a14.56,14.56,0,0,1-4.41-.83,1.12,1.12,0,0,0-.4.83h-1.6a2.85,2.85,0,0,1-2,3,3.81,3.81,0,0,0,1.61.82V79c-2.19,0-2.15-.18-3.21-0.83l-0.23.16-0.57.39a8.24,8.24,0,0,1,1.91.82,7.53,7.53,0,0,1,3.22,3.69l0.09-.36h1.21a1.19,1.19,0,0,1-.4.83v0.56h0.81c0.6-1.93,1.08-1.9.8-3.32h0.4a2.06,2.06,0,0,1,1.31.21" transform="translate(-13.69 -34.56)"/><path class="c" d="M258.67,60c-1.23.54-2.13,1.2-3.21,1.1-2.23.06-2.73,0.1-3.21-1.1-2-.06-4-0.53-4.82-0.28-1.69.15-1.16-.2-1.2,0.83-2.64-.41-2-0.28-4.42,0-2.05-1-6.7-.9-10.44-1.37-0.76-.1-0.51.66-1.61,0.55a17.89,17.89,0,0,1-2-.82h-0.4c-0.41,0-1.86.77-2.41,0.82l-2.41-.27c-2.83.56-7.84,1.44-10,1.93s-4.18-.76-5.62-0.27c-0.62.21-.91,1-1.61,1.11a7.29,7.29,0,0,1-5.21-.56,1.12,1.12,0,0,0-.4.83c-2.87-.12-3,0-2.81,1.38a24.06,24.06,0,0,0-9.24,0c-0.73.22-1.93,1.22-2.81,1.38l-1.6-.28a25.66,25.66,0,0,0-6,1.93c-0.92.37-.62,0.6-1.21,1.11a2.62,2.62,0,0,1-1.2.27V67.42a5.73,5.73,0,0,0-1.2,1.1c-1-.41-0.63-0.12-0.81-1.1-2.44.88-5,.66-7.43,1-0.35.05-.69,0.13-1,0.21a10.61,10.61,0,0,1,2,.84c0.74,0.43,1.39.77,1.92,1l0.12,0.07a28,28,0,0,1,4.4,3.7,12,12,0,0,1,.9,1,3.8,3.8,0,0,1,1.17,1l0.18,0a35,35,0,0,1,3.83-1.06V76c1.16-.33,3.29-0.94,3.61-1.1s0.1,0,0-.28c0.4-1.33,1.82-2.14,3.61-2.49,0.93-.55,2,0.71,3.21.55V72.12H190a10.88,10.88,0,0,0,5.21,0A9.2,9.2,0,0,0,196,71a27,27,0,0,0,2.81.27V70.46a8.33,8.33,0,0,0,4.82-.28c0.18-.62.26-0.38-0.8-0.83V68.53c1.1,0.24,2.6.15,3.21,0.83,1.08-.46.4,0,0.4-0.83,2.16,0.1,2.22.57,3.21,0.83,1.41,0.37,2-.49,2.41-0.55a1.42,1.42,0,0,1,.85.12,3.42,3.42,0,0,1,.48.27l1.49-2.29,0.14-.19a5.53,5.53,0,0,1,4-1.91h0.22a9.71,9.71,0,0,1,3.67.74,16.48,16.48,0,0,1,3.21,1.73c0.85,0.6,1.5,1.08,2,1.46a5.62,5.62,0,0,1,.14-0.59,1.92,1.92,0,0,1,.65-1c0.24-.22,0-0.07.4,0,0.9,0.33.54,0.83,1.21,1.1,1.05,0.45,3.72.77,4.82,1.1a2.62,2.62,0,0,0,.4-1.1,3.75,3.75,0,0,1-1.6-.27h-0.8V67.42l1.2-.27a13.82,13.82,0,0,1,1.61,1.38c2.43,0,3.7,0,4.82-.83,2.52-.06,2.49,0,2.41,1.1h2.4a1.15,1.15,0,0,0-.4-0.82V67.42a6.36,6.36,0,0,1,2.41-.27c1.62,0.41.68,0.63,1.21,1.1,0.7,0.73,0,.38,1.2.27,0.27,0.7.11,0.15,0,.83a18.08,18.08,0,0,0,2.41-.27h1.2l-0.4.82c1.72-.11,7.12-0.52,7.63-1.1,2.25,0,2.58.2,2,1.38a5.2,5.2,0,0,0,2.41,0,2.33,2.33,0,0,0,.8-0.55V69.36h0.8c0.24,0.94.78,0.88-.4,1.38,1.95,1.26,4.33.67,5.63,2.21,2-.26,2.78-1,4.41-1.38l0.4,0.28c-0.53.67,0.19,0.19-.81,0.55a4.49,4.49,0,0,0,2.81.27c0.26,0.7.12,0.15,0,.83,2.37,0.18,4.42,1,6.42,0,2.34,0.35,2.06,1,2.48,1.86a2.41,2.41,0,0,0,.31.49c0.05-.06.1-0.13,0.16-0.18a7.15,7.15,0,0,1,1.93-1.33,5.43,5.43,0,0,1,2.26-.45h0.41l12-.39c-0.06-.18-0.12-0.37-0.2-0.55a2.37,2.37,0,0,0-.51-0.82V71.84A1.36,1.36,0,0,0,303.31,73l-0.07.23a3.23,3.23,0,0,1-1-.2L302,72.95c-0.29-.39-0.13-0.35.4-0.83-0.49-.79-0.6-0.9-2-1.1V70.74a1.79,1.79,0,0,0,.81-0.28,1.58,1.58,0,0,0,.8-0.28h-0.8c-1.23-.32-1.15.85-2.81,0.28-0.68-.22-1-0.9-1.21-1.93h1.21V68.25c-1.6-.39-2.4,0-2.82-1.38A2.76,2.76,0,0,0,294,68c-2.09-.76-1.18-1.17-4-1.38l0.4-.83c-1.29.24-.62-0.15-1.21,0.55-2.36-.44-2.67-1.92-4.82-2.49a3.66,3.66,0,0,0-1.61-.28,2.33,2.33,0,0,1-.8,1.66,21.63,21.63,0,0,1-3.61-.56,1.49,1.49,0,0,0,0,1.39,7.33,7.33,0,0,0-1.61-.28,4.82,4.82,0,0,1-1.21-2.49c-1,.37-0.29-0.13-0.8.55-1-.41-0.63-0.11-0.8-1.1-1.57.29-1.15,0.64-2.42,0a1.41,1.41,0,0,0-.39,1.1c-1.22-.53-0.48-1.22-0.81-1.65l-0.8-.56c-0.51,0-.21-0.18-0.81.28-1-.35-0.87-0.29-1.2-1.11a4,4,0,0,0-1.61,1.11c-1.4-.26-0.73.16-0.81-0.83a4.59,4.59,0,0,1-2.41-1.1,12.15,12.15,0,0,0-3.61.83l-0.4-.83" transform="translate(-13.69 -34.56)"/><path class="c" d="M155,72.12h0.47c0,0.1,0,.18,0,0.26l0.73-1a1.73,1.73,0,0,0-.75.22h-0.09a10.31,10.31,0,0,0-2.32.27v0.55a3.66,3.66,0,0,0,1.6-.28H155Z" transform="translate(-13.69 -34.56)"/><path class="c" d="M338.57,119.34a21.67,21.67,0,0,0,2.81.55c-0.84-2.33-2.07-3.49-2-6.63h1.21A14,14,0,0,0,337,110v-0.27a7.54,7.54,0,0,1,1.61.55V110l0.4-.27-1.21-.28c-0.27-.63,1.75-1,1.21-2.49a11.65,11.65,0,0,1-.81-4.14c-1.21,0-1.12.21-1.61,0h-0.8c0.6-.68.5-0.51,2-0.54-0.49-1.8-1.2-3.18-.4-4.7A0.91,0.91,0,0,1,337,97c-1.43.12-1-.15-1.61,0.55h-0.8a5.77,5.77,0,0,1-.4-3.32h-0.4a20.45,20.45,0,0,0-1.21,1.66,2.67,2.67,0,0,1-1.2-.27h-0.4c0.59-.69-0.1-0.32,1.2-0.55-0.64-1-2.17-3.41-2-3.87-0.37-.94-0.21-0.72-1.24-0.6-0.2,0-.43,0-0.73,0-2.21,3-4.23,5.83-6,8.43l-0.08.12h0c-0.24.45-.41,1.26-0.7,1.94a2.39,2.39,0,0,1-.64.93,1.27,1.27,0,0,1-.26.18l0.07,0.1c0.52,0.69.76,0.67,2.34,0.72-0.2.63-.35,0.31,0,0.83-0.49.79-.6,0.91-2,1.1,0.84,0.63.15,0.28,1.2,0.27v0.83a3.84,3.84,0,0,1,1.61.28h0.4l-0.4.55h0.4a1,1,0,0,1-.4.56,8.92,8.92,0,0,1-2.41.55c-0.14,1.46-.09,4.14-1.61,5.53,0.44,0.88.7,1.09,2,1.38-0.77,2.16-.06,2.19,0,3.31v0.56a3.66,3.66,0,0,1-1.2-.56l-0.4.28c0.78,1.66.39,2.65,1.77,3.75a5.54,5.54,0,0,0,.45.32c0.28-.45.55-0.88,0.79-1.3,1.67-2.87,2.17-3.38,2.53-3.67a3.67,3.67,0,0,1,2.41-.94l0.39,0a3.85,3.85,0,0,1,2,.73,2.24,2.24,0,0,1,.8,1.61,2,2,0,0,1-.45,1.4,160.33,160.33,0,0,1-10.38,16.21,56.85,56.85,0,0,1-8.12,9,18.34,18.34,0,0,1-6.82,4,31.11,31.11,0,0,1-3.93.8l-0.55.62c-2.76,3-6.49,6.2-9.83,7.22,0.6,1,1.23.7,1.61,1.93-1.37-.23-1-0.13-1.61-0.83-5,1.33-7.66,4.47-12.45,6.36v0.83c-3.58.39-5.77,2.61-8,3.87a41.67,41.67,0,0,1-6.42,2.21,1,1,0,0,1-.4.56,2.62,2.62,0,0,0,1.2.27,5.26,5.26,0,0,1-.8,1.93c-1-.42-0.62-1-1.21-1.66-0.32-.24-5.72,1.41-6.83,1.94-0.47.22-.43,1.2-0.8,1.38a15.63,15.63,0,0,1-2,0c-0.13.92-.38,0.69,0.4,1.38v1.11c-1.53-.3-1.85-0.18-2.41-1.11-2.13.25-2.56,1-4,1.66v0.55l2-.28v0.83l-0.4.28a6,6,0,0,1-3.21-1.11c-3.24.42-6,1.92-8.43,2.76-2,.69-3.94,1-5.62,1.66l-3.61.27c-0.55.18-1.49,1.16-2,1.38-1.18.49-3.86,0.42-5.22,0.55a22,22,0,0,0-2.41,1.1l-2.41-.27c-3.59.73-7.86,1.72-12,2.49h-4c-0.76.16-2.86,1.27-3.21,1.38-1,.31-3.18-0.53-4.82,0l-0.4.83c-2.49,1-5.09-.79-6.42,1.11v1.93c-1.43-.1-0.84-0.49-1.61.28a1.71,1.71,0,0,1-.8-0.28c-0.3-.35.51-1.16,1.2-1.66v-0.55c-1.53.45-1.72,1.12-3.21,0.27-1,.4-0.47-0.07-0.8.83a11.63,11.63,0,0,1-2.81-.83c-2.79-.71-6.69.56-8.83,0.83a150.84,150.84,0,0,1-21.68,0v0.83c-1.37.16-1.27,0.53-2-.28-1.06.49-.56,0-0.4,0.83-2-.34-2.19-1.57-3.62-1.38a7.94,7.94,0,0,0-5.22,2.21c-1.55-.59.48-0.18-0.39-1.38-0.19-.25-1.33-0.39-2-0.83v-0.55c-0.62-.25-3.38.15-4,0l-0.4-.55c-0.9-.17-2.17.45-2.81,0.27l-1.2-.83c-2-.44-2.22.83-3.62,0.56-1.68-.34-2.39-1.08-5.22-1.11a1.18,1.18,0,0,1-.4.82v0.28c-1-.26-0.63-0.31-1.61-0.56a0.93,0.93,0,0,0-.4-0.55,2.53,2.53,0,0,1,1.21-.28v-0.13a1.2,1.2,0,0,0,.35,0,1,1,0,0,0,.73-0.41q0.67-1.16,1.21-2.12l1.18-2.11,1.32-2.37q1.27-.27,2.7-0.51l2.84-.47q-0.18,1.13-.29,2.14a10.8,10.8,0,0,0,0,1.9,5.6,5.6,0,0,0,.62,2.36c0.1,0.14.2,0.3,0.3,0.47a0.7,0.7,0,0,0,.51.32h0.09a4.91,4.91,0,0,0,.61-0.13,1.39,1.39,0,0,0,.8-0.59,0.9,0.9,0,0,0,.16-0.5c0-.18,0-0.37,0-0.58l0-.62v-0.18q0-.35,0-1.65a17.77,17.77,0,0,1,.55-3.43l0.31,0a1,1,0,0,0,.84-0.73,3.64,3.64,0,0,0,.1-1.08,2.2,2.2,0,0,0-.15-0.79,0.38,0.38,0,0,0-.2-0.3,38.73,38.73,0,0,1,2-4.83,52.4,52.4,0,0,1,3.39-5.77,4.67,4.67,0,0,0,.24-0.42l0.14-.48a1.77,1.77,0,0,0,0-.6,2.17,2.17,0,0,0-.82-1.5c-0.19-.16-0.51-0.42-1-0.75a2,2,0,0,0-1.35-.46,0.86,0.86,0,0,0-.76.55q-1.23,2.67-2.08,4.79t-1.8,4.74a54.7,54.7,0,0,0-1.6,5.26q-0.62.13-1.65,0.25l-2.72.33,0.35-.67a5,5,0,0,1,.32-0.54q0.71-1.3,1.56-2.79t1.93-3.19q1.08-1.71,2.43-3.68t3.05-4.32s0.12-.19.28-0.47a1.81,1.81,0,0,0,.19-1,2.17,2.17,0,0,0-.82-1.5l-0.25-.19c-0.19-.14-0.41-0.3-0.71-0.49h0a2.21,2.21,0,0,0-1.36-.37,1.21,1.21,0,0,0-.69.29,1.22,1.22,0,0,0-.17.13l-0.19.37c-0.44.87-.86,1.7-1.24,2.45l-1.52,3.05q-0.87,1.76-1.93,3.75T120,176.7q-1.22,2.27-2.48,4.5a0.33,0.33,0,0,0,0,.35,0.84,0.84,0,0,0,.35.2,1.42,1.42,0,0,0,.54.14L117,182l-1.64.19-1.81.2h-0.09a2,2,0,0,0-.35.07,2,2,0,0,0-.47.21,1.44,1.44,0,0,0-.46.46,1.47,1.47,0,0,0-.21.8,0.64,0.64,0,0,0,0,.27l0,0.4a2.36,2.36,0,0,0,.2,1,0.9,0.9,0,0,0,.84.56h0l0.48-.12a4.67,4.67,0,0,1,.57-0.11,5.87,5.87,0,0,0,.79-0.17l1.18-.26a2.2,2.2,0,0,0-.69.27,3.34,3.34,0,0,0-.62.42,2.52,2.52,0,0,0-.55.69v0l-0.48.75-0.48.75a4.67,4.67,0,0,0-.24.42c0,0.15-.1.31-0.14,0.48a1.76,1.76,0,0,0,0,.61,2.08,2.08,0,0,0,.21.74,2.38,2.38,0,0,0,.61.76,3.1,3.1,0,0,0,.34.23l-0.65-.15a19,19,0,0,0-4.41.56,10.2,10.2,0,0,1-3.61-1.66h-0.4v1.38a10.27,10.27,0,0,1-3.21,0c-1.37-.55-1.52-1.93-2.81-2.48a8.64,8.64,0,0,0-4.41-.55l-0.4.28c-1-.32-0.06-1-1.61-0.55-1.45-.25-1.22-0.17-1.61-1.11l-4,.82a5.64,5.64,0,0,0-2.41-.82,1.63,1.63,0,0,1,.8-1.1c-1.63-.35-4.45-1.69-5.22-0.83-1.1-.21-0.67,0-0.81-0.55-0.5-.3-3.69-2.08-4-2.22h-1.6c-0.55-.25,0-0.74-0.4-1.1a18.55,18.55,0,0,0-2.81-1.38h-2c-2.18-.75-3.05-2.85-4.82-3.87-2.93-1.67-5.57-2.07-7.23-4.69h-0.8c-0.44,1-.35,1.54-0.81,2.49-1.25-.16-1,0-1.6-0.55a4.13,4.13,0,0,1,.4-2.21,3.29,3.29,0,0,0-.4-1.38H51.49c0.1-2.57-5-8.17-7.62-9.94v-0.28c-1.27.44-.49,0.18-0.4,1.1-2.46-.33-3.12-3.23-1.6-3.86a5.21,5.21,0,0,0-2-1.38v-0.27a12.17,12.17,0,0,0-1.61,2.48l-0.37,0-0.61-.06q-1.79,3.07-3.22,5.44c0.17,0.06.36,0.11,0.55,0.16h0c-0.29.61-.18,0.66-0.42,0.62a4.1,4.1,0,0,0-.61-0.06l-0.17.29v0.26H35c-0.12,1.16-.5,1.86.4,2.76v0.55h1.2c-0.26,2.27-2.09,2-1.6,3.86l-0.4.28c2.29-.15,1.8.62,4.42,0.83v-0.83c1.57-.22,1.41-0.29,2-1.1l3.61,0.55c0.78-.79.36,0,0.4-1.1a7.08,7.08,0,0,1,1.61.56,0.94,0.94,0,0,0,.4.55,2.41,2.41,0,0,1-2,1.66,7.5,7.5,0,0,0,2,2.77c-0.51.83-.14,0.64-1.61,0.82,0.92,1,2.28,1.5,3.21,2.49h0.41v-1.38h1.2l0.4,0.27V179H53.1c-0.31-.19-0.89-0.36-1.2-0.55h-0.4v-0.55c1.77,0.16,1.44.41,3.21,0.55v0.82H53.5c0.27,0.6.51,0.82,0,1.39,0.51,1.11,1.26,1.75,3.21,1.92a1,1,0,0,1-.4.56c-0.64.87-.26,0.34-1.61,0.27,0.71,1,2,1,3.61,1.39a8.33,8.33,0,0,0,.8,1.66v0.27h0.4v-1.66h1.2c-0.58-.62-0.89-0.36-0.4-1.1a5.69,5.69,0,0,0-2-.56v-0.55h0.4a1.71,1.71,0,0,1,.8-0.28,14.75,14.75,0,0,0,3.61,2.49l-0.4.27c-0.78.29-.46,0.1-1.61,0,0.88,1,1.82,1.28,2,2.76,1.08-.45.4,0.05,0.4-0.82a5.27,5.27,0,0,0,1.2-.55,4.48,4.48,0,0,1,2.81,2.49,1.85,1.85,0,0,0,.81-0.27h0.8c-0.32,1.07,0,.9-1.6,1.1a1.69,1.69,0,0,0,.81.27c0.88,0.23.44,0.21,1.2-.27,2.06,0.37.92,0.64,1.61,1.37v0.28a2,2,0,0,0,1.6-1.65H74l0.4,0.27c-0.53.67,0.19,0.2-.8,0.56v0.54a1.76,1.76,0,0,0,.8-0.27c1.89,0.29,4.67,1.4,4.82,3a7.72,7.72,0,0,1,6.42.83,3.15,3.15,0,0,0,.81-0.83,3.36,3.36,0,0,1,2,.56c1.1,0.37,1,.37,1.21,1.38a2.82,2.82,0,0,1,1.6-.55v0.82c0.73-.24.69-0.66,1.2-0.27h0.8V195H92l-0.4-.27a6.42,6.42,0,0,0,0-1.93,0.92,0.92,0,0,0,.4-0.55c1.13,0.38,1.3.93,2.41,1.38-0.47.77-.05,0.52-1.21,0.83,1.19,1.6,2.39,1.56,2,3.87a10.54,10.54,0,0,1,3.21.55h0.4a0.93,0.93,0,0,0-.4-0.55V197.5a1.8,1.8,0,0,0,.8-0.27h1.61c-0.32,1,.3,1-1.2,1.38a1.13,1.13,0,0,0,.4.83v0.28c1.29-.28,2.72-0.79,3.21-1.66a2.65,2.65,0,0,1,1.2.28c0.31,0.39-.05.48-0.4,1.1a5.17,5.17,0,0,1,1.2.56,4,4,0,0,0,2.41-.83c1.52,0.41,2,.73,2,2.21a5,5,0,0,0,2.41-2.21,12.19,12.19,0,0,1,2.41,0,1.18,1.18,0,0,1-.4.83c1.8,1.29,1.54,0,2.81.55l0.4,1.11c1.12,0.52,1.57-.35,2.82.56,2.14-.33,1.86-1.1,4-1.39,0.36,1,.25.85,1.61,1.1,2.79,1.15,10.06-2.3,12-.83,2.22,0.21,1.71.81,2.81,1.66,0.78,0.36,2.79.38,4,1.11h0.8c-0.64-.89-1.19-0.55-1.6-1.66,0.71,0.08,2.65.9,2.81,0.82,0.85-.39,0-0.6,1.6-0.82V203c2.66,0,5.95-.39,7.23-1.38,1.62,0.33,1.56.78,2,1.66,2.13-.61,1-0.57,3.61-0.28V202.2c1.51,0,1.42-.15,2,0.55,1-.26.63-0.3,1.6-0.55a1.88,1.88,0,0,0-.8-1.11v-0.28h2.41v0.83c1.39-.22.85-0.6,1.6-0.83,1.26-.37,1.61.28,2.41,0h0.8a1.15,1.15,0,0,1-.8.83v0.27a9.09,9.09,0,0,1,1.61.56,11.88,11.88,0,0,1,2.81-.27h1.61a1,1,0,0,0-.4-0.56v-0.55c4-.07,4.57-0.11,6.83.83a3.53,3.53,0,0,0,.8-1.1l0.4,0.28c1.06,0.48.56,0,.4,0.83,1.55,0,1.71,0,2.41-.55,1.57,0.24,1.79.52,2,1.66h0.4l0.4-.27c-0.24-.86-0.07-0.67-0.8-1.1,0.65-.73,0-0.3,1.61-0.28l0.8-2.48,6.42-.28V200c2.2-.45,3.56-0.58,5.22.55,0.26-.23.54-0.87,0.8-1.1a2.54,2.54,0,0,1,2.41-.83,1,1,0,0,0-.4-0.55v-1.38h0.8a5.28,5.28,0,0,0,1.21,1.66v0.27a2.38,2.38,0,0,0,1.2-1.93l1.61-.28c0.4-.35,1.08.19,1.6,0.56,1.31-.34.9-0.58,2.41-0.83-0.76-.82-0.52-0.39-0.4-1.66h1.6c0.18,1.47.79,1.71-.8,2.21l0.4,0.28v0.28a4.44,4.44,0,0,0,1.61-1.11,3.56,3.56,0,0,1,3.21,0,10.5,10.5,0,0,0,2.41-.27,1.46,1.46,0,0,0-.4-1.1c1.36-1.51,2.36-.13,2.81-0.28,2.83-1,1.4-1.89,5.62-1.1A3,3,0,0,0,231,192l1.61,0.55a3.45,3.45,0,0,1,.81-0.83c0.56-.19.51-0.08,1.2,0.28a1.07,1.07,0,0,0,.4-0.82l3.62-.27c-0.43-.81-0.74-0.65-1.21-1.38l0.4-.28a7.34,7.34,0,0,1,1.6.28v1.38h1.21A1.14,1.14,0,0,1,241,190v-0.28c0.78-.12.51,0.13,0.8,0.28,1-.41.47,0.07,0.8-0.83h1.2v-1.38l1.61,0.27c-0.53.67,0.19,0.2-.8,0.56a1,1,0,0,0,.4.55v0.28c0.59-.23,2.63-3.82,2.81-4.42h1.61a15.12,15.12,0,0,1-.81,2.21,3.49,3.49,0,0,0,1.21.55,13,13,0,0,0,3.21,0V187h2a1.65,1.65,0,0,1,.81-1.38c0.41-.43,1.33-0.12,2.81,0l0.4-.28,0.4-.27a8.18,8.18,0,0,0-1.61-.55,1.19,1.19,0,0,1,.4-0.84,1.27,1.27,0,0,1,1.61.55h0.81v-1.1h2c-1.94-2.56.49-2.39,1.21-4.42a5.24,5.24,0,0,1,1.2.55h0.81v-0.55a7.07,7.07,0,0,0-1.6-.27,3.8,3.8,0,0,1,2.81-1.66,1.62,1.62,0,0,1,.81-0.28l0.4,0.28c-0.57.74-1.12,1.68-.4,2.48-0.5.69-.72,0.43-1.21,1.1-1-.4-0.47.07-0.8-0.82h-0.4a1.57,1.57,0,0,1-1.2.82l0.4,0.56c3.16,0,2-.11,4-0.56l4,0.28h0.4c1.52-.6-0.14-1.39,2.81-0.83a13.87,13.87,0,0,0,.8-2.21l-1.21-.28c-0.84-1,.38-1.18-0.8-1.93a2.59,2.59,0,0,1,1.21-.27V174.3a10.71,10.71,0,0,0,2,.55,4.58,4.58,0,0,0,1.61-1.93,46.11,46.11,0,0,1,4.82-.27v-0.83a2.64,2.64,0,0,1,1.2.28h1.21s-0.09-1.08-.4-0.56l-0.4.28-0.4-.83a22.73,22.73,0,0,1,4.82-1.66v-1.1c1.3,0.1,1.55.33,2.41,0,0.3-.35,0-0.27,0-1.11a10.56,10.56,0,0,1,2.41.27c0.19-.62.34-0.31,0-0.82,0.53-.7,1.38-1,2-1.66a14.37,14.37,0,0,1,4,0,1.59,1.59,0,0,1,1.2-.83c-0.43-1,.76-1.4-0.4-2.21,0.6-.68.17-0.44,1.61-0.55-0.64-.89-0.55-0.56-0.4-1.65a6.63,6.63,0,0,1-1.6.55l-0.4-.27c0.24-.86.07-0.68,0.8-1.11l0.4-.28a3.55,3.55,0,0,1,.8,1.11,1.13,1.13,0,0,0,.4-0.83,2.38,2.38,0,0,1,2,1.66,27.63,27.63,0,0,0,2.81-.55l-0.4-.28c0.59-.69-0.1-0.32,1.2-0.55,0.34-1.33,1-1.34,1.2-2.77,4.07-.53,1.45-2.4,2-3.31l1.2-.27-0.4-.83c1.33-.23,3.39-0.51,4.83-0.83l0.39,0.28c-0.46.78-.05,0.52-1.2,0.83v0.56a4.65,4.65,0,0,0,2-.83h0.4c-0.48-1-.93-1.14-2.41-1.38a6,6,0,0,0,.81-1.94c1,0.4.46-.07,0.8,0.83a7.35,7.35,0,0,1,1.61-.28v-1.1a3.74,3.74,0,0,1,1.61.28c2.6-.48,1.66-2.18,4.82-3.32a1.16,1.16,0,0,0-.8-0.83v-0.27c-0.23-.55-0.4.55-0.4,0.55h-0.81c0.14-1.21.7-1.68,0.4-2.21,0.24-1.69,1-1.44,2.42-2.21a4.37,4.37,0,0,1,2,1.1v0.28c0.35-.47-0.07-0.83.4-1.38v-0.55a3.58,3.58,0,0,1,1.2.55,3.55,3.55,0,0,1,.8-0.83v-0.55c-1.1.19-.65-0.17-0.8,0.55h-2.41c0.65-1.25,1-1.39,1.2-3.32h1.2v1.38h0.4V137a1.18,1.18,0,0,0-.4-1.38c0.53-.63.86-0.43,1.61-0.84,0.26-.46-1-1.93-1.2-3.31h1.2a1.16,1.16,0,0,0-.4-0.83v-0.83h0.8a2.67,2.67,0,0,1,.4,1.1h0.4l0.4-.27c0-1.23.15-1.29-1.2-1.66v-0.56c1.91,0.09,2.43.3,3.21,1.1h0.8a10.11,10.11,0,0,0-1.21-1.38c0.78-.29.47-0.09,1.61,0a5.89,5.89,0,0,0-.8-3.31c1.19-.32,2.53-0.31,3.21-0.55a0.92,0.92,0,0,0,.4-0.55l-0.4-.28a13.64,13.64,0,0,0-3.62.56h-0.8c0.21-1.18,3-1.63,5.22-1.93V121l-1.2-.28c-0.69.82-1.61,1-2.41,1.66-1.16-.33-2.14-0.91-3.21-0.55h-0.81v-1.66a4.49,4.49,0,0,0,3.61,0,1.52,1.52,0,0,1,0,1.1c1.66-.29,1.47-0.81,1.61-1.93" transform="translate(-13.69 -34.56)"/><path class="c" d="M153.72,73.94l0.46,0.31,0.34-.49h-1l0.25,0.17" transform="translate(-13.69 -34.56)"/><path class="c" d="M69,74.73a3.85,3.85,0,0,1-.36.62,7.08,7.08,0,0,1,1.28-.21l0.74,0a10.4,10.4,0,0,1,5.47,1.57c0.71,0.44,1.31.82,1.85,1.17-0.26-.45-0.57-0.81-0.84-1.2a3.59,3.59,0,0,1-.73-1.79H75.18V73.22C77.38,73,79,71.41,80,72.95h0.8V71.56H82v0.83a13.41,13.41,0,0,0,3.61-.55c2.16-.65,0-1.26,2-1.66-0.59-.69.09-0.32-1.21-0.55V68.25c1.5,0,1.42-.15,2,0.55,0.65,0.32-.08.35-0.4,0.83a1.6,1.6,0,0,1,.8,1.39,31,31,0,0,0,3.61-1.94V68.25a2.73,2.73,0,0,0,1.2-.27c1-.41.74-0.34,0.81-1.38,2.62,0,3.19-1.36,6.42-1.66-1.36-.59-2.32-0.15-3.21-1.1l-0.4-.28a8.23,8.23,0,0,1,2-.27,22.56,22.56,0,0,1-.4-4.14,7.83,7.83,0,0,0,2.81-.28,2.6,2.6,0,0,1,.4,1.1h-1.61c0.9,0.9,1.68.74,1.2,1.93a3.39,3.39,0,0,1,1.61.55h0.8a3.23,3.23,0,0,1-.4-1.38c1.23-1.57,5.22-1.09,6.82-1.1a6.21,6.21,0,0,1,.4,1.1h1.6V60.24c1.72-.22,1.69-0.55,3.22-0.27a1,1,0,0,0-.4-0.55c0.17-1.94.7-1,2-1.93,0.41-.29-0.82-1.52-0.4-2.21s0.75,0.17,1.21-1.1h1.61v2.21a7.85,7.85,0,0,1,2.81.55c1.43-.16.41-0.14,1.21-0.55s0.47-.09,1.61,0c-0.18-1.29-.63-1.7.4-2.48,0.85-.9,1.9-0.26,2.81-0.56,0.32-.17.1,0,0-0.27V52.51c2.06,0.15,2.85.55,3.61-.27,4.09,0.1,3.08-.7,4-1.93a12.54,12.54,0,0,0,2.41-.27c0.3-.35,0-0.27,0-1.11h1.21V50.3c2.05-.17,1.77-0.59,3.61-0.83V50.3c1.95-.6,4.51-1,6-1.93a3.51,3.51,0,0,0,.4-1.65l0.41-.28c2.13,0.09,2.49.36,3.21,1.38,1.4-.26.73,0.16,0.81-0.84l2.41,0.28c0.6-.15,1.43-1.43,2-1.66,1.69-.66,2.4.13,3.61-0.55a5,5,0,0,1,2.81,1.66h0.4a1.21,1.21,0,0,0-.4-0.84V45.33a12.38,12.38,0,0,1,2,1.11,3.4,3.4,0,0,0,.4-1.66h0.81a2.93,2.93,0,0,1,.41,1.38h0.79a1.19,1.19,0,0,1,.81-0.83V44.49h1.21a1.14,1.14,0,0,1,.4-0.82V42.29h0.8a2.57,2.57,0,0,1,.4,1.1h1.21a2.29,2.29,0,0,1-.8-0.82H174c1.3-.39,4.75,1.13,5.62,1.66,0.7,0.24.53-.28,1.21,0H182l-0.4-.84a7.47,7.47,0,0,1,1.61-.27A6.1,6.1,0,0,0,182,42V41.74a4,4,0,0,1,2.81,1.93c1.53-.11,3.88.12,4.42,0a1.81,1.81,0,0,0,.81-0.28,1.13,1.13,0,0,0,.4-0.82h1.2v1.11c2.3,0.2,4.56-.13,7.23,0V42.84c3.12,0.11,2.28.31,4.82,0a1.2,1.2,0,0,0,.4.83c0.33,0.74.63-.23,0.8-0.56,2.46-.05,2.82.22,2.41,1.38,2.61-.14,3.08-0.48,4.42-1.65,0.23-.08-1-1.54-1.2-2.49-1.44.11-.85,0.49-1.61-0.28h-1.2a1.88,1.88,0,0,0,.8,1.11c-1.41,1.82-4.68.18-5.22-1.11-0.49-.68.14-1.05,0.81-1.66a4.6,4.6,0,0,1-1.2-.55c-0.43-.3.67-1.41,0.4-1.66h-0.8a7.72,7.72,0,0,0-.81-1.38V34.56c-0.81.28-1.55,1.84-1.2,2.21-0.59.68,0.1,0.32-1.2,0.55a1.63,1.63,0,0,0,.8.28c-0.31,1-.52.68-0.8,1.66-3.14-.86-3.85-0.32-7.63-0.55V37.87c-1,.47-0.87,1.3-0.8,2.21a6.83,6.83,0,0,0-1.6-.27V39c-3.09-.9-5.68-0.12-7.63-1.38-1,.49-0.61.16-0.4,0.82-0.71,1.13-1.62.62-2,1.39-1.7-.26-2.11-0.44-2.81-1.39a12,12,0,0,0,1.6-.27c1,0.41.63,0.12,0.8,1.11,0.28-.21.53-0.62,0.8-0.84V37.87c-2.51-.32-6.38-0.58-7.62,0-0.29.16,0.29,0.69,0.8,1.1-0.31.19-.89,0.37-1.2,0.55-1-.4-0.47.07-0.81-0.83a4.88,4.88,0,0,0-1.21.55c-1.08.45-.4,0-0.39,0.83-3.09,0-4.3.41-6.43,0.28V42H161.1a2.76,2.76,0,0,1,1.21-1.1l-1.21-.28a6.16,6.16,0,0,0-.8,2.21h1.21v1.65l-2,.28a4.13,4.13,0,0,1-.8-2.21l-0.4.28c-0.9-.38-1.23-1.56-1.61-2.21-1.8.1-1.7,0-2,1.11a5.27,5.27,0,0,1-1.2-.55c-3.25.1-2.19,1.3-4,1.93-2.38.83-3.21-.6-3.61,1.66-2.57-.64-1.66-0.27-4.42,0-0.26,1.27-.68,1-1.2,1.94-1.68-.36-4.33-1.18-4.83-1.94-2.53.4-2.3,1.43-5.21,1.1l-0.4,1.38h-1.2V46.43c-1.8.54-3.89,0.95-6,1.38a3.84,3.84,0,0,0,.8,1.65V50c-1.05-.22-1-0.34-2-0.56a1.61,1.61,0,0,1-.8.28c0,1.07.08,1.91-.4,2.49v0.55l-0.4-.28a1.11,1.11,0,0,1-.81-1.66h-1.2V52c-2.7.31-.25,0.7-2.81,1.11a1,1,0,0,0,.41.55,2,2,0,0,0,1.61,0c-0.33.59,0.06,0.6-.4,1.11-0.88.67-.4-0.77-1.61-0.28-0.6.24,0.09,0.42-1.2,0.55a1.45,1.45,0,0,0-.4-1.1c-0.25-.31-1.22.4-2.41,0.55v1.11h-1.2l0.4,0.27,0.4,0.28V55.82h1.61l-0.4.28c-0.75.78-1.55,0.39-3.22,0.28v0.83l-0.07,0-0.06,0V56.93h-0.8l0.15,0.5a1.82,1.82,0,0,1-.82-0.22h-0.4c-0.18-.54.18-0.36,0.4-0.55V55.82c-1.5.28-2.16,0.26-3.61,0.56a8.91,8.91,0,0,1-1.61-1.66,2,2,0,0,0-1.61,1.66c-1.16.08-3.29,0.19-3.61,0.28a3.27,3.27,0,0,0-1.6,2.49,3.53,3.53,0,0,1-1.61-.56c-1.29.4-.9,0.69-2.81,0.83,0.75,1.14.68,1.88,0.4,3.31a5.13,5.13,0,0,0-2,.82h-0.4a2.53,2.53,0,0,0,1.21.28v0.82a4.13,4.13,0,0,1-2-.82V63H86.42a7.23,7.23,0,0,0,.8,2.49,1,1,0,0,1-.4.55v0.27c-1-.41-0.64-0.12-0.8-1.1h-0.4a2.73,2.73,0,0,1-.4,1.66v0.55A1.49,1.49,0,0,1,84,66H82.81V64.93c-1,.62-0.7.89-2.41,1.11a2.57,2.57,0,0,0,1.21.27l-0.4.28c-0.65.73,0,.29-1.61,0.27,0.16,0.82.64,0.34-.4,0.83v2.39a1.54,1.54,0,0,0-.13-0.18l-0.4-.28c-0.18.34-.4,1-0.67,1.46a12.88,12.88,0,0,1-5.22-1.46c-1.62.08-2.65,0.47-3.17,1.24L69,70.74l0.31,0.65a3.17,3.17,0,0,0-.18,1L68,72.12v0.55h1.61A7.46,7.46,0,0,1,69,74.73" transform="translate(-13.69 -34.56)"/><path class="c" d="M45.87,90.9h-0.4c1.37,0.68,2,.19,2.41,1.66a29,29,0,0,0,3.21.55,1.18,1.18,0,0,1-.4.83v0.56a1.65,1.65,0,0,1-1.2-.56,5.47,5.47,0,0,0-2.41.56c0.22,0.85.14,2.94,0.4,3.31a6.16,6.16,0,0,1-2.82.83,1.2,1.2,0,0,1-.4.83v0.27c1.73-.24,1.47-0.61,3.21-0.83-0.3,1,0,.77-1.21,1.11a2.52,2.52,0,0,0,1.21.27v0.84a18.69,18.69,0,0,0-2.42.55v1.1c1-.36.29,0.13,0.81-0.54a4.18,4.18,0,0,1,2,.82v0.56a1.69,1.69,0,0,0-.8.27c-2-.18-1.43-0.41-2.42-1.11a8.44,8.44,0,0,0-.4,3,2.76,2.76,0,0,0-1.21.27,11.46,11.46,0,0,0-4.42.55l0.4,0.27c0.25,1.43.15,0.76,1.61,1.11a0.93,0.93,0,0,1-.4.55c-0.5.27-.49-0.06-1.2,0.28-0.3.34,0,.26,0,1.1a2.58,2.58,0,0,1-1.2-.27,10.66,10.66,0,0,1-2.33,0,0.54,0.54,0,0,1-.45-0.46c-0.68,2.37-1.27,4.7-1.73,6.95l0,0.13,0,0.1c-0.32,1.6-.59,3.15-0.82,4.68l-0.07.48a77.05,77.05,0,0,0-.79,8.17c0.14,0,.32-0.11.56-0.17h0c0-.09,0-0.15,0-0.22a3.07,3.07,0,0,0-.37-1.15l0.44-.18A8.31,8.31,0,0,1,35,126.8c-0.94-1-1.61-1.23-1.6-3,4,0.41,2.92.78,5.78,0l0.77-.21,0.22-.37v0A3.83,3.83,0,0,0,40,122.4c-0.76-2-3-2.71-3.77-4.72a2,2,0,0,1,.8-1.93,3.33,3.33,0,0,0-2-2.2c0.59-.69-0.1-0.33,1.21-0.56v0.83l1.2,0.27a3.07,3.07,0,0,1,2-1.1,1.16,1.16,0,0,0-.4-0.82,3.52,3.52,0,0,1,1.61-.28,2.62,2.62,0,0,1-.4-1.1c1,0.4.47-.06,0.8,0.83,1.64-.12,1.74-0.35,2.81.28a27.28,27.28,0,0,0,2.69-.77l0.81-.3c1.1-1.93,2.17-3.84,3.2-5.7l0.33-.61c-0.06-.22-0.13-0.49-0.19-0.82l0-.08h0.06l0.61,0,3.29-6.07a4.61,4.61,0,0,0-.75.5h-2c0.15-.78.38-0.58,0-1.1,0.31-.46,1.85-0.88,3.13-1.24l0.49-.14c-0.07-.19-0.12-0.33-0.17-0.45-0.2-.49-0.34-0.45-1.44-0.66-0.15-2,.17-2.55,2-2.49V90.35c0.79,0.19,1.35.26,1.83,0.43a2.33,2.33,0,0,1,.5.25l0.5-.92v0h0l1.11-2,0.31-.57,1.08-2,0.9-1.67,0.55-1q0.7-1.34,1.43-2.75a4.13,4.13,0,0,1-.54-0.16,2.66,2.66,0,0,1-.84-0.54c-1,.7-0.86,1.27-2.41,1.66v0.83H59.12c0.41,0.93-.13,1.3.8,1.93,0,3-1.47,1.42-3.61,1.93l-1.61,1.1-2-.27c-0.53.22,0.24,0.35-.8,0.55,0.4,1.62-.12,2.37,0,4.15-2.1-.09-3.43-0.55-4-1.66h-0.8L45.87,90.9" transform="translate(-13.69 -34.56)"/><path class="c" d="M106.1,53.61l0.4,1.11c1.39-.49,1-0.51-0.4-1.11" transform="translate(-13.69 -34.56)"/><path class="c" d="M100.07,63h1.2V62.73l-1.2-.28V63Z" transform="translate(-13.69 -34.56)"/><path class="c" d="M77.59,70.18c-0.35-.88.22-0.42-0.8-0.82a2.59,2.59,0,0,0-.4,1.1h0.8l0.4-.28" transform="translate(-13.69 -34.56)"/><path class="c" d="M83.61,74.33c-0.35-.89.22-0.43-0.8-0.84a1,1,0,0,0,.41.56v0.28h0.4Z" transform="translate(-13.69 -34.56)"/><path class="c" d="M63.54,76.26h0.8V76h-1.6c0.44,0.54.06,0.26,0.8,0.27" transform="translate(-13.69 -34.56)"/><path class="c" d="M46.67,97.25a11,11,0,0,0-1.2-1.94,3.1,3.1,0,0,1-.4,1.38,0.92,0.92,0,0,1,.4.56h1.2Z" transform="translate(-13.69 -34.56)"/><path class="c" d="M41,152.3v-0.1h-0.6l-0.11.18a2.25,2.25,0,0,1,.25.67c0,0.08,0,.15.06,0.26a1.31,1.31,0,0,0,.39-1" transform="translate(-13.69 -34.56)"/><path class="c" d="M78.26,68.53c-0.05.79-.29,0.4,0,0.83l0.4,0.27,0.4-.27c-0.35-.89.22-0.43-0.8-0.83" transform="translate(-13.69 -34.56)"/><path class="c" d="M214.51,41.19c0.13,0.55.27,1.1,0.4,1.66l1.21-.83c1.4,0.48,1.29,1.23,2.81,1.66l4-.28a1.18,1.18,0,0,1-.8.84V44.5c2.55-.18,1.85-0.85,3.61-1.38a1.64,1.64,0,0,1,.8-0.27l0.4,0.27a1.66,1.66,0,0,1-1.21.56,2.52,2.52,0,0,0,.8,1.38,19.79,19.79,0,0,1,2.81,0,1.45,1.45,0,0,1,.4-1.1,2.43,2.43,0,0,1,.81-0.83c1.37,0.32.8,0,.8,0.83,1.46,0,.65.35,1.6-0.27,1,0.22,1,.34,2,0.55V44.5a20.71,20.71,0,0,1-2.81.56V45.6a5.44,5.44,0,0,0,2-.55,1.49,1.49,0,0,1,0,1.38c2.52-.08,2.8.59,5.62,0.82v-1.1c2.34,0.28,1.18,1,2.81,0,0.92,0.33,5.21,2.43,5.62,3,1.77-.25,2-0.85,3.21,0,1.22-.53.63-0.57,0.4-1.38h2.82A16.2,16.2,0,0,1,253,49.75c1.92,0.69,1.79-.22,2.81,1.38h2a1.16,1.16,0,0,0,.4.83l0.4,0.83a4.87,4.87,0,0,0,2-.28c1.44-.7-0.16-2.3,1.6-3.86A32.28,32.28,0,0,0,256.66,47c-1.11-.26-2.94.37-4.41,0.56v-1.1a1.73,1.73,0,0,0-.8.28,1.14,1.14,0,0,1-.4-0.84c-0.36-.65-0.38-0.47.8-0.83-1.1-.57-1.21-0.48-2,0-2.4-.1-2.42-1-2.41-2.21a1.76,1.76,0,0,1-.8-0.28c-0.87.24-1.19,0.81-1.21,2.21a13.66,13.66,0,0,1-3.61-2.48,2.92,2.92,0,0,0-2,.83c-0.92-.36-0.62-0.6-1.21-1.1V41.46c-1.39.53-.64,0.93-2.81,1.1l0.81,0.55v0.56a14.15,14.15,0,0,1-2-.56c-0.25-.57,0-1.45-0.8-2.21V40.36c-1.29.09-4.53,0.82-5.22,0.55V40.36c-0.94-.43-0.87,0-2,0,0.53-.67-0.19-0.19.8-0.55a3.33,3.33,0,0,0-.4-1.39c-2.37.23-4.2-.33-6.83,0.56-0.59.2-1.55,1.24-2,1.38a2.54,2.54,0,0,1-1.2-.55h-0.8a4.24,4.24,0,0,1,.8,1.38h-1.21l-0.4-.28V39.25h-1.2c-0.26.7-.12,0.15,0,0.83a1.66,1.66,0,0,1-.8-0.27h-1.2a11.49,11.49,0,0,0,.8,1.38c0.77,0.29.46,0.09,1.61,0" transform="translate(-13.69 -34.56)"/><path class="c" d="M265.9,54.17l-0.81.55L265.5,55a4.12,4.12,0,0,0,2.41-.55c0.44,0.45.1,1.36,0.4,1.66s2,0.44,2.41.83-0.42,1,.4,1.66c1.33,1.1,3.79.79,4.41,2.49h0.8c0.32-1.31-.25-2.25.4-2.76-0.15-3.42-2.71-1.64-4-2.21-1.6-.7-1-2.43-4-2.76,0.14-.27.27-0.55,0.4-0.83a15.27,15.27,0,0,1-4.42-.27c0.37,0.71.46,1.48,1.21,1.94" transform="translate(-13.69 -34.56)"/><path class="c" d="M278.34,61.07a2.83,2.83,0,0,0,1.2.83h1.21l0.4-.83c-1.39-.56-1.13-1.07-2-1.93a2.47,2.47,0,0,0-1.21-.28,1,1,0,0,1-.4.55c0.17,1,1.17,1.45.8,1.66" transform="translate(-13.69 -34.56)"/><path class="c" d="M280.35,62.45v0.28l-0.4.28,0.8,0.55a2.48,2.48,0,0,0,1.2.28,2.58,2.58,0,0,0-.8-1.38h-0.8Z" transform="translate(-13.69 -34.56)"/><path class="c" d="M125.37,87h-0.8l-0.4.82L124.9,88l0.57,0.1,0.13-.27-0.23,0V87h0Z" transform="translate(-13.69 -34.56)"/><path class="c" d="M31.53,137.39L32.41,136a8.68,8.68,0,0,1-.89,0c0,0.48,0,1,0,1.45" transform="translate(-13.69 -34.56)"/><path class="c" d="M36.78,128.87a1.49,1.49,0,0,1-.54-0.13l0,0a6.91,6.91,0,0,0-2,2.46H32.62c0.3,0.61,1,.75,1.2,1.09a0.94,0.94,0,0,1,.07.21c0.15,0.68-.58,1.13-0.47,1.45v0.35c1.13-1.81,2.25-3.63,3.36-5.46" transform="translate(-13.69 -34.56)"/><path class="c" d="M65.54,77.09V76.81h-0.8A2.72,2.72,0,0,0,65,77l0.51,0.12" transform="translate(-13.69 -34.56)"/><path class="c" d="M37.44,127.07l0.48-.09,1.27-2.11H36.24c0.27,1.31-.14,1.06-0.4,2.49a5.57,5.57,0,0,0,1.32-.16l0.29-.12" transform="translate(-13.69 -34.56)"/><path class="c" d="M39.45,154.14l0.23,0.48L39.85,155h1.6v-0.28c-0.87-.18-1-0.3-1.56-0.45l-0.45-.1" transform="translate(-13.69 -34.56)"/><path class="c" d="M309.31,73.36c-0.75-.25-1.44-0.23-2.08-0.49a2.28,2.28,0,0,1-.38-0.2l-0.56.23c-0.21.1-.16,0.15-0.2,0.56l0.86,0,2.36-.07" transform="translate(-13.69 -34.56)"/><path class="c" d="M307.65,88.14h0.08q1.11-1.9,2.21-3.74-2.63.2-5,.41l0.36,0.53a19.18,19.18,0,0,0,2,2.48,3.1,3.1,0,0,0,.37.32" transform="translate(-13.69 -34.56)"/><path class="c" d="M321.53,123.81l0.23-.36-0.46,0,0.22,0.33" transform="translate(-13.69 -34.56)"/><path class="c" d="M329.11,89.35l-0.24.33,0.46-.16a1.24,1.24,0,0,0-.22-0.17" transform="translate(-13.69 -34.56)"/><path class="c" d="M41,148q2.84-4.79,5.62-9.35t5.11-8.47q2.33-3.92,3.48-6.14-0.52,6.47-.55,13a74.5,74.5,0,0,0,.85,12,33.69,33.69,0,0,0,2.88,9.59A11.38,11.38,0,0,0,64,164.3a3,3,0,0,0,1,.31,15,15,0,0,0,1.81.25,5.56,5.56,0,0,0,2-.22,2.76,2.76,0,0,0,1.63-1.26q2.79-4.33,4.91-7.85T80,147.7q2.55-4.31,5.11-8.55t4.74-8l3.49-6q2.61-4.62,5.76-9.67t7.14-10.91q4-5.87,9.06-12.73t11.35-15a16.65,16.65,0,0,0,.95-1.6,6.33,6.33,0,0,0,.65-3.57,7.25,7.25,0,0,0-3-5.15,39.49,39.49,0,0,0-3.43-2.36,8.33,8.33,0,0,0-5.15-1.32,4.57,4.57,0,0,0-3.16,1.45q-2.9,5.25-5.27,9.71l-5.62,10.5q-3.24,6-7.17,12.9-6,10.52-12.57,21.93T69.66,140.94a90.12,90.12,0,0,1-.49-9.22,86.76,86.76,0,0,1,.68-11.07,94.92,94.92,0,0,1,2.46-12.57,84.7,84.7,0,0,1,5-13.74A24.92,24.92,0,0,1,80,90.92a8.07,8.07,0,0,1,.95-1.6,5.86,5.86,0,0,0,.8-3.73A6.82,6.82,0,0,0,81,83a8.18,8.18,0,0,0-2.22-2.6,35.4,35.4,0,0,0-3.51-2.35A8.67,8.67,0,0,0,70,76.78a4.58,4.58,0,0,0-3.16,1.45q-2.15,4.28-4.17,8T57.92,95q-2.75,5-5.92,10.9-4.78,8.6-10.39,18.11T30.12,142.67q-0.37-5.17-.2-12a84.56,84.56,0,0,1,1.81-14.82A106.62,106.62,0,0,1,46,80.78a8.37,8.37,0,0,0,1.19-3.91,5.86,5.86,0,0,0-1-3.3A8.76,8.76,0,0,0,42,70.66q-1-.39-3-1a21.75,21.75,0,0,0-4.22-.85,12.38,12.38,0,0,0-4.3.3,5.4,5.4,0,0,0-3.27,2.3,381.56,381.56,0,0,0-10.9,44.24q-1.52,8.53-2.23,16.92A87,87,0,0,0,14,148a36.54,36.54,0,0,0,3.07,12.18,12.88,12.88,0,0,0,7.1,6.92,3.48,3.48,0,0,0,1.58.42,10.81,10.81,0,0,0,1.72.11,3.64,3.64,0,0,0,2.67-1.41q0.15-.16,1.76-2.8t3.94-6.63q2.33-4,5.17-8.78" transform="translate(-13.69 -34.56)"/><path class="c" d="M125.66,99.63q1.2,0.83,3.6.2a21.76,21.76,0,0,0,4.84-2,37.8,37.8,0,0,0,4.68-3,12.59,12.59,0,0,0,3-3l0.1-.14a10.24,10.24,0,0,0,.74-1.21,7.8,7.8,0,0,0,.87-4.87,6.17,6.17,0,0,0-3-4.68,6.73,6.73,0,0,0-5.67-.52,10.38,10.38,0,0,0-5.2,3.74,33.67,33.67,0,0,0-2.26,3.76,32.74,32.74,0,0,0-2,4.66,16.05,16.05,0,0,0-.92,4.27,2.74,2.74,0,0,0,1.26,2.74" transform="translate(-13.69 -34.56)"/><path class="c" d="M345.92,76.06a3.16,3.16,0,0,0-.51-1.49,1.17,1.17,0,0,0-.2-0.45,2.73,2.73,0,0,0-1.51-.51,8.93,8.93,0,0,0-2.36.17,10.48,10.48,0,0,0-2.48.63l-0.49,0a21.37,21.37,0,0,1,1.57-2.1q0.82-1,1.58-1.95a9.59,9.59,0,0,0,.88-3.74,7.28,7.28,0,0,0-1-3.6,9.51,9.51,0,0,0-4.09-3.54l-1.94-.93a8.75,8.75,0,0,0-2.42-.75,5.66,5.66,0,0,0-2.6.18,3.93,3.93,0,0,0-2.15,1.84q-1.33,1.93-3,4.19Q323.9,66,322,68.73t-4,6.1q-4.89,0-11,.24l-13.93.45a4.06,4.06,0,0,0-1.94.29,5.45,5.45,0,0,0-1.48,1,3.57,3.57,0,0,0-.92,2.05,6.17,6.17,0,0,1-.08,1.23,5.7,5.7,0,0,0,0,1.68,4.39,4.39,0,0,0,.61,1.64,1.76,1.76,0,0,0,1.45.82l6.5-.46q3.09-.22,7.06-0.58t8.68-.69q-5.13,8.32-10.24,17.94a154.93,154.93,0,0,0-8.47,18.66c-0.35.95-.68,1.88-1,2.8q-1,1.5-2.08,3l-1.84,2.63-0.11.16q-2.23,3.14-4.4,5.82a64.24,64.24,0,0,1-4.31,4.82,18.86,18.86,0,0,1-4,3.19,3.15,3.15,0,0,1-1.76.43,2.29,2.29,0,0,1-1.28-.75q-0.62-.65-0.43-2.65a17.54,17.54,0,0,1,1.77-5,39.56,39.56,0,0,1,3.49-6,71,71,0,0,1,6.46-7.88,8.42,8.42,0,0,0,1.41-3.16,8.52,8.52,0,0,0-.14-3.13A6.34,6.34,0,0,0,283.6,110q-2.77-2.25-4.57-3.5a17.33,17.33,0,0,0-3.06-1.77,6.25,6.25,0,0,0-2-.55,3.1,3.1,0,0,0-1.21.16,0.34,0.34,0,0,0-.24.09,0.35,0.35,0,0,1-.24.09,8.19,8.19,0,0,0,.72-3.65q0-2.22-2.78-4.63-0.69-.56-1.63-1.18a5.72,5.72,0,0,0-2.18-.84,7,7,0,0,0-2.53,0,4.68,4.68,0,0,0-2.5,1.55,131.12,131.12,0,0,0-16,21,70.68,70.68,0,0,0-4.6,8.9c-0.15.35-.27,0.69-0.41,1s-0.51.84-.81,1.35c-0.51.87-1.1,1.81-1.77,2.81-0.54.81-1.13,1.66-1.77,2.54-0.31.43-.62,0.87-1,1.32a64.7,64.7,0,0,1-6.73,7.59,27.67,27.67,0,0,1-8.81,5.83,5.07,5.07,0,0,1-2.57.64,2.71,2.71,0,0,1-1.84-.56A3.39,3.39,0,0,1,214,146q-0.52-2.72,1.28-7.28a57.87,57.87,0,0,1,5.8-10.36,129.81,129.81,0,0,1,13.24-15.94q0.92,1.47-.67,4.33a36.09,36.09,0,0,1-4.46,6.13,15.29,15.29,0,0,0-2.81,4.1q-0.55,1.5.05,1.91c0.4,0.28,1.13.2,2.19-.23a12.22,12.22,0,0,0,3.43-2.31l2.07-1.91q1-.91,1.76-1.58a19.22,19.22,0,0,0,1.53-1.49,27.58,27.58,0,0,0,4-4.87,13.65,13.65,0,0,0,1.62-3.64,5.14,5.14,0,0,0,.11-3.07,26.71,26.71,0,0,0-2.47-6.1,19.72,19.72,0,0,0-2.8-3.78,9.86,9.86,0,0,0-3.11-2.38,11.38,11.38,0,0,0-1.85-.79,5.31,5.31,0,0,0-4.95,1.57,131.12,131.12,0,0,0-16,21,67.74,67.74,0,0,0-4.59,9c-0.59,1.41-1.1,2.81-1.54,4.19q-0.83,1.21-1.86,2.62l-1.15,1.54-0.43.56c-1.44,1.89-3,3.86-4.83,5.94a46,46,0,0,1-6.34,6.11,11.2,11.2,0,0,1-2.35,1.39,1.55,1.55,0,0,1-1.56-.12q-0.77-.48-0.92-2.61-0.42-3.64,3.7-12.35,1.7-3.64,4.68-8.75t7.56-12q4.57-6.9,11.05-15.63t15.18-19.59a7.07,7.07,0,0,0,1.42-3,7.61,7.61,0,0,0-.22-3.12,6.88,6.88,0,0,0-2.53-3.42q-0.69-.56-2-1.47a14.73,14.73,0,0,0-2.88-1.56,8,8,0,0,0-3.23-.61,3.9,3.9,0,0,0-2.84,1.35q-4.27,6.58-9,13.8-4,6.25-8.71,14.08t-8.89,16.24q-1.5-2.65-2.46-4.72a13.72,13.72,0,0,0-3.06-4.07,7.22,7.22,0,0,0-1.55-1.19,8.2,8.2,0,0,0-2.19-.92,4.93,4.93,0,0,0-2.45,0,5.21,5.21,0,0,0-2.5,1.63,131.19,131.19,0,0,0-16,21,79,79,0,0,0-4.67,8.9c-0.19.43-.35,0.85-0.52,1.27l-0.18.31c-0.64,1.1-1.42,2.31-2.32,3.61q-0.79,1.16-1.72,2.42l-0.46.64a64.61,64.61,0,0,1-6.73,7.59,27.64,27.64,0,0,1-8.81,5.83,5.07,5.07,0,0,1-2.57.64,2.72,2.72,0,0,1-1.83-.56,3.4,3.4,0,0,1-1.14-2.29q-0.47-2.11,1.45-7.14a88.4,88.4,0,0,1,5.61-11.8,220.27,220.27,0,0,1,12.57-19.64,1.51,1.51,0,0,0,1.26.52,3.21,3.21,0,0,0,1.36-.4q0.62-.35,1.42-0.71,0.76-.82,3.67-3.47t6.13-5.64q3.83-3.49,8.44-7.64a17.7,17.7,0,0,0,4-4.49,13.86,13.86,0,0,0,1.6-3.86,6.14,6.14,0,0,0,.09-3.37q-1.91-6.29-4.63-8.93A27.07,27.07,0,0,0,167.46,72c-0.57-.27-1.24-0.62-2-1.08a8.88,8.88,0,0,0-2.52-1,5.37,5.37,0,0,0-2.68.11,4.6,4.6,0,0,0-2.4,1.85,360.38,360.38,0,0,0-23.64,37.34q-4,7.48-7.43,15a103.15,103.15,0,0,0-5.16,13.84c-0.54.83-1.14,1.72-1.81,2.65-0.49.69-1,1.39-1.57,2.13l-0.16.21a70.88,70.88,0,0,1-6.81,7.6,27.66,27.66,0,0,1-8.81,5.83,5.07,5.07,0,0,1-2.57.64,2.72,2.72,0,0,1-1.84-.56,3.41,3.41,0,0,1-1.14-2.29q-0.53-2.87,1.71-8.08a77.06,77.06,0,0,1,6.93-11.59,151.46,151.46,0,0,1,15.31-17.84,8.45,8.45,0,0,0,1.41-3.16,8.54,8.54,0,0,0-.14-3.13,6.34,6.34,0,0,0-2.45-3.42c-0.46-.37-1-0.77-1.63-1.19a5.79,5.79,0,0,0-2.1-.85,6.49,6.49,0,0,0-2.45,0,4.69,4.69,0,0,0-2.5,1.55,144.51,144.51,0,0,0-16,21,75,75,0,0,0-4.67,9,42.21,42.21,0,0,0-2.87,9.08,20.26,20.26,0,0,0,.11,8.41,14.69,14.69,0,0,0,4.1,7.13l1.71,1.1a12.49,12.49,0,0,0,1.93.71,8.08,8.08,0,0,0,2.71.19,26.28,26.28,0,0,0,5.08-.9,17.12,17.12,0,0,0,6.11-3.65,57.63,57.63,0,0,0,7.95-8.75l0.44-.58q0.57-.75,1.15-1.57T120,146a31,31,0,0,0-.17,4.52,12.17,12.17,0,0,0,3.38,8.48,10.59,10.59,0,0,0,1.71,1.1,11.46,11.46,0,0,0,2,.7,8.84,8.84,0,0,0,2.79.18,26.86,26.86,0,0,0,5-.89,17,17,0,0,0,6.19-3.65,55.18,55.18,0,0,0,7.87-8.75l0.82-1.11c0.36-.49.73-1,1.1-1.54s0.78-1.13,1.18-1.73a22.07,22.07,0,0,0,.33,6.75,14.16,14.16,0,0,0,4,7.21,9.85,9.85,0,0,0,5.86,2,14.44,14.44,0,0,0,6.8-1.94q4-2,9.31-8.08a10.49,10.49,0,0,0,3.06,6.37q2.91,1.93,7.18-.05a16.89,16.89,0,0,0,4.22-2.6,45.33,45.33,0,0,0,5.19-5c1.32-1.46,2.74-3.18,4.25-5.14l1-1.37,1.08-1.44,0.07-.1a19.46,19.46,0,0,0,.42,5.88,14.67,14.67,0,0,0,4.1,7.13l1.71,1.1a12.53,12.53,0,0,0,1.93.71,8.08,8.08,0,0,0,2.71.19,26.91,26.91,0,0,0,5-.89,17,17,0,0,0,6.19-3.65,55.09,55.09,0,0,0,7.87-8.75c0.42-.56.86-1.16,1.31-1.78s0.72-1,1.09-1.55,0.79-1.15,1.19-1.76a20.05,20.05,0,0,0,.37,6.66,14.71,14.71,0,0,0,4.1,7.21,9,9,0,0,0,5.53,2.06,14.92,14.92,0,0,0,6.65-1.7q3.87-1.8,8.85-7.51a16.25,16.25,0,0,0,3.16,5.44q2.16,2.91,6.29,1.24a21.1,21.1,0,0,0,4.07-2.43,34.24,34.24,0,0,0,5.28-5c1.81-2.05,3.82-4.6,6-7.58l0.57-.77,0.78-1.09c0.48-.67,1-1.38,1.46-2.11-0.3,1.59-.54,3.13-0.68,4.62q-0.7,7.4,3.34,11.4a10.5,10.5,0,0,0,1.71,1.1,11.42,11.42,0,0,0,2,.7,8.84,8.84,0,0,0,2.79.18,26.91,26.91,0,0,0,5-.89,17,17,0,0,0,6.19-3.65,55,55,0,0,0,7.87-8.75,159.88,159.88,0,0,0,10.36-16.19,0.43,0.43,0,0,0,.14-0.32,0.61,0.61,0,0,0-.2-0.44,2.33,2.33,0,0,0-1.17-.38,2,2,0,0,0-1.59.57,16.31,16.31,0,0,0-2.14,3.21,73.25,73.25,0,0,1-4.51,6.67,64.51,64.51,0,0,1-6.73,7.59,27.67,27.67,0,0,1-8.81,5.83,5.07,5.07,0,0,1-2.57.64,2.71,2.71,0,0,1-1.84-.56,3.39,3.39,0,0,1-1.14-2.29q-0.38-3,3-10.62,1.41-3.16,3.79-7.54t6.13-10.31q3.74-5.93,8.93-13.41t12.35-16.87q2.76-.19,5.2-0.29t4.72-.26a2.86,2.86,0,0,0,2-.83,3.34,3.34,0,0,0,.85-1.74,6.48,6.48,0,0,0,0-2.07M159,98.41q3.87-5.25,8.5-11.39,0.75,1.48-.68,4.18a32.82,32.82,0,0,1-4,5.72q-2.56,3-5.61,6.06t-5.5,5.36q3.42-4.68,7.3-9.93m23.29,28.12a35.26,35.26,0,0,1-3.19,6.88q-2.18,3.75-4.62,7.29t-4.76,6.54q-2.32,3-3.67,4.62a6.71,6.71,0,0,1-2.06.91,1.92,1.92,0,0,1-1.57-.27,3,3,0,0,1-1.05-2.15q-0.35-2.58,1.31-6.83a78.87,78.87,0,0,1,5.27-9.71,102.32,102.32,0,0,1,11.92-14.93q2.63,0.27,3,2.39a11,11,0,0,1-.61,5.25m89.46-12.61q-0.73,1.28-2.74,5.09t-4.78,8.53q-2.77,4.71-5.94,9.45a65.57,65.57,0,0,1-6.21,8,6.7,6.7,0,0,1-2.06.91,1.92,1.92,0,0,1-1.57-.27,3,3,0,0,1-1-2.15q-0.52-2.72,1.28-7.28a57.87,57.87,0,0,1,5.8-10.36,130.13,130.13,0,0,1,13.24-15.94l0.15-.16a3.64,3.64,0,0,1,2.54-1,1.71,1.71,0,0,1,1.38,1.05,5.34,5.34,0,0,1,.39,2.11,4.15,4.15,0,0,1-.43,2" transform="translate(-13.69 -34.56)"/><path class="c" d="M140.63,181.58q0.81-1.49,2-3.49t3-4.54q1.75-2.53,4.11-5.69a2.11,2.11,0,0,0,.38-0.87,2.38,2.38,0,0,0-.07-0.91,2,2,0,0,0-.7-1l-0.54-.43a4,4,0,0,0-.79-0.45,2.09,2.09,0,0,0-.88-0.18,1,1,0,0,0-.77.39l-2.43,4q-1.07,1.82-2.35,4.09t-2.4,4.72q-0.41-.77-0.68-1.38a4.06,4.06,0,0,0-.84-1.19,2,2,0,0,0-.43-0.35,2.19,2.19,0,0,0-.6-0.27,1.25,1.25,0,0,0-.67,0,1.39,1.39,0,0,0-.68.47,37.54,37.54,0,0,0-4.33,6.11,23.32,23.32,0,0,0-1.26,2.59,11.4,11.4,0,0,0-.74,2.62,7,7,0,0,0,0,2.47,4.25,4.25,0,0,0,1.11,2.1,2.61,2.61,0,0,0,1.6.6,3.73,3.73,0,0,0,1.85-.56,9.42,9.42,0,0,0,2.53-2.35A3.18,3.18,0,0,0,137,190a1.82,1.82,0,0,0,2,0,4.52,4.52,0,0,0,1.15-.75,12.66,12.66,0,0,0,1.41-1.46c0.44-.53.94-1.19,1.46-1.94a6.11,6.11,0,0,0,.14,1.26,4.41,4.41,0,0,0,1.13,2.1l0.47,0.32a3.21,3.21,0,0,0,.53.21,2.07,2.07,0,0,0,.74.06,4.64,4.64,0,0,0,1.21-.27,4.83,4.83,0,0,0,1.45-.93,15.4,15.4,0,0,0,1.86-2,34,34,0,0,0,2.39-3.54l0.4-.63q0.28-.44.57-1l0.61-1.14,0.55-1a5.86,5.86,0,0,0,.6,0,1.64,1.64,0,0,0,.84-0.35,4.32,4.32,0,0,0,.42-0.34,19.93,19.93,0,0,0-1.23,2.6,13.63,13.63,0,0,0-.74,2.64,6.3,6.3,0,0,0,0,2.45,4.4,4.4,0,0,0,1.13,2.08l0.47,0.32a3.29,3.29,0,0,0,.53.21,2.08,2.08,0,0,0,.74.06,6.89,6.89,0,0,0,1.36-.25,4.53,4.53,0,0,0,1.68-1.06,15.61,15.61,0,0,0,2.13-2.54l0.45-.67a7,7,0,0,0,0,1.2,3,3,0,0,0,1,2l0.41,0.19a1.11,1.11,0,0,0,.41.08,0.6,0.6,0,0,0,.43-0.19l4-5.64a7.89,7.89,0,0,0-.15,2.84,4.31,4.31,0,0,0,1.15,2.39,2.83,2.83,0,0,0,.47.32,2.92,2.92,0,0,0,.55.21,2.29,2.29,0,0,0,.76.06,6.89,6.89,0,0,0,1.36-.25,4.52,4.52,0,0,0,1.68-1.06,15.5,15.5,0,0,0,2.13-2.54c0.35-.5.74-1.11,1.15-1.79q-0.09.56-.13,1.09a4.11,4.11,0,0,0,.93,3.32,2.93,2.93,0,0,0,.47.32,3,3,0,0,0,.55.2,2.29,2.29,0,0,0,.76.06,6.9,6.9,0,0,0,1.36-.25,4.53,4.53,0,0,0,1.68-1.06,15.5,15.5,0,0,0,2.13-2.54c0.18-.26.38-0.55,0.57-0.86a6.48,6.48,0,0,0,.09,1.06,4.11,4.11,0,0,0,1.09,2.13l0.47,0.32a3.2,3.2,0,0,0,.53.21,2.08,2.08,0,0,0,.74.06,5.65,5.65,0,0,0,.95-0.16,3.82,3.82,0,0,0,1.12-.53,8.15,8.15,0,0,0,1.34-1.15,18.16,18.16,0,0,0,1.62-2,3.9,3.9,0,0,0,1,3l0.47,0.32a3.11,3.11,0,0,0,.53.21,2,2,0,0,0,.74.06,6.79,6.79,0,0,0,1.39-.26,4.57,4.57,0,0,0,1.66-1.06,16.18,16.18,0,0,0,2.15-2.54,39.85,39.85,0,0,0,2.78-4.7,0.12,0.12,0,0,0,0-.09,0.08,0.08,0,0,0,0,0l0.2-.39q0.2-.37.63-1.07a1.86,1.86,0,0,0,.8,0,3.87,3.87,0,0,0,1.57-1,20.92,20.92,0,0,0-1.24,2.59,13,13,0,0,0-.74,2.62,6.25,6.25,0,0,0,0,2.45,4.39,4.39,0,0,0,1.13,2.08l0.47,0.32a3.27,3.27,0,0,0,.53.21,2.07,2.07,0,0,0,.74.06,7,7,0,0,0,1.36-.25,4.52,4.52,0,0,0,1.68-1.06,15.42,15.42,0,0,0,2.13-2.54c0.3-.42.62-0.93,1-1.48a6.17,6.17,0,0,0,.08,2,4.39,4.39,0,0,0,1.13,2.08l0.47,0.32a3.29,3.29,0,0,0,.53.21,2.08,2.08,0,0,0,.74.06,6.89,6.89,0,0,0,1.36-.25,4.53,4.53,0,0,0,1.68-1.06,15.55,15.55,0,0,0,2.13-2.54l0-.05a2.28,2.28,0,0,0,.29,1.45,2.59,2.59,0,0,0,.94,1,2.35,2.35,0,0,0,.74.33l0.64,0.15a2,2,0,0,0,.54.05,3.88,3.88,0,0,0,1.86-.49,5.19,5.19,0,0,0,1.39-1.17,6.69,6.69,0,0,0,1-1.63,14,14,0,0,0,.68-2l0.66,0a5.34,5.34,0,0,0,1.46-.17c0.23-.09.31-0.19,0.25-0.29a1,1,0,0,0-.51-0.27,3.17,3.17,0,0,0-.81-0.14l-0.84.06a19.23,19.23,0,0,0,.39-3.19q0.06-1.61.06-2.9,0-1.51-.17-2.93a1.26,1.26,0,0,0-.3-0.78,1.94,1.94,0,0,0-.59-0.45,2.15,2.15,0,0,0-.68-0.2,3.44,3.44,0,0,0-.63,0,2,2,0,0,0-1.23.27,1.93,1.93,0,0,0-.62.67,2.22,2.22,0,0,0-.2.91q0.13,0.62.21,1t0.15,0.9q-0.56.93-1.32,2.44t-1.56,2.81a0.91,0.91,0,0,0-.15.35l-0.22.39a21.1,21.1,0,0,1-1.22,1.94,18.21,18.21,0,0,1-1.82,2.21,7.44,7.44,0,0,1-2.4,1.69,1.32,1.32,0,0,1-.7.19,0.72,0.72,0,0,1-.5-0.16,1,1,0,0,1-.32-0.67,1.3,1.3,0,0,1,0-.49,6.36,6.36,0,0,1,.11-0.68,8.45,8.45,0,0,1,.3-1,0.45,0.45,0,0,0,.35.22,1.33,1.33,0,0,0,.42-0.05,1.38,1.38,0,0,0,.43-0.21q0.21-.24,1-1T223,177l2.33-2.26a6.49,6.49,0,0,0,1.12-1.46,5.44,5.44,0,0,0,.43-1.06,1.21,1.21,0,0,0,0-.85,9.1,9.1,0,0,0-.87-1.88,6.5,6.5,0,0,0-.91-1.16,4.32,4.32,0,0,0-1-.68,1.48,1.48,0,0,0-.76-0.1,1.43,1.43,0,0,0-.81.48,37.66,37.66,0,0,0-4.32,6.11,20,20,0,0,0-1.24,2.61c0,0.09-.06.17-0.09,0.25l-0.2.37a21.13,21.13,0,0,1-1.22,1.94,18.2,18.2,0,0,1-1.82,2.21,7.45,7.45,0,0,1-2.4,1.69,1.3,1.3,0,0,1-.7.18,0.71,0.71,0,0,1-.5-0.16,1,1,0,0,1-.32-0.67,4.63,4.63,0,0,1,.45-2.35,22.49,22.49,0,0,1,1.87-3.37,43,43,0,0,1,4.15-5.18,2.52,2.52,0,0,0,.38-0.92,2.64,2.64,0,0,0,0-.91,1.88,1.88,0,0,0-.67-1c-0.13-.11-0.28-0.23-0.45-0.35a1.52,1.52,0,0,0-.6-0.25,1.81,1.81,0,0,0-.69,0,1.25,1.25,0,0,0-.68.45q-0.37.47-.82,1l-0.86,1.11q-0.49.64-1.05,1.44t-1.3,1.48a5,5,0,0,1-1.11.93,0.55,0.55,0,0,1-.3.16c-0.21,0-.31-0.14-0.3-0.47v0a0.13,0.13,0,0,1,0-.09q0.43-.74.89-1.56t0.92-1.74c0.12-.36.24-0.8,0.35-1.3a1.14,1.14,0,0,0-.35-1.2,1.58,1.58,0,0,0-1.69-.52,2.2,2.2,0,0,0-1.23,1.49,13.08,13.08,0,0,0-.35,1.32c-0.09.36-.17,0.74-0.23,1.13s-0.11.71-.15,0.95c0,0.42-.05.81-0.07,1.16a2.07,2.07,0,0,0,.23,1.05q-0.41,1.1-.7,1.74a9.44,9.44,0,0,1-.61,1.16,0.38,0.38,0,0,0,0,.08l-0.16.28a19.15,19.15,0,0,1-1.24,1.94,20,20,0,0,1-1.85,2.21,7.42,7.42,0,0,1-2.4,1.69,1.32,1.32,0,0,1-.7.19,0.71,0.71,0,0,1-.5-0.16,1,1,0,0,1-.32-0.67,4.52,4.52,0,0,1,.43-2.13,19.47,19.47,0,0,1,1.63-3,39.58,39.58,0,0,1,3.65-4.68,2.09,2.09,0,0,0,.38-0.87,2.63,2.63,0,0,0,0-.91,1.87,1.87,0,0,0-.67-1c-0.13-.11-0.28-0.22-0.45-0.35a1.87,1.87,0,0,0-.58-0.27,1.26,1.26,0,0,0-.67,0,1.39,1.39,0,0,0-.68.47q-1.14,1.55-2.18,3.19a31.89,31.89,0,0,0-1.71,3.13,17.06,17.06,0,0,0-1.24,3.46,22.13,22.13,0,0,1-1.93,2.3,6.7,6.7,0,0,1-2.16,1.56,2.29,2.29,0,0,1-.7.18,0.76,0.76,0,0,1-.5-0.14,0.93,0.93,0,0,1-.32-0.64,9.83,9.83,0,0,1,.89-3.1,31.13,31.13,0,0,1,2.15-3.88,39.78,39.78,0,0,1,4.31-5.42,2.53,2.53,0,0,0,.38-0.92,2.66,2.66,0,0,0,0-.91,1.87,1.87,0,0,0-.67-1c-0.13-.11-0.28-0.23-0.45-0.35a1.54,1.54,0,0,0-.6-0.25,1.79,1.79,0,0,0-.69,0,1.25,1.25,0,0,0-.68.45,52.52,52.52,0,0,0-4.76,6.85,28.59,28.59,0,0,0-1.42,2.87,13.79,13.79,0,0,0-.77,2.43c-0.18.27-.36,0.55-0.57,0.86a18.2,18.2,0,0,1-1.82,2.21,7.42,7.42,0,0,1-2.4,1.69,1.31,1.31,0,0,1-.7.19,0.72,0.72,0,0,1-.5-0.16,1,1,0,0,1-.32-0.67,7.42,7.42,0,0,1,.8-3.09q0.38-.92,1-2.19t1.65-3q1-1.72,2.41-3.9t3.34-4.9l1.42-.08,1.29-.07a0.75,0.75,0,0,0,.54-0.24,1,1,0,0,0,.23-0.51,2.06,2.06,0,0,0,0-.6,1,1,0,0,0-.14-0.44,0.38,0.38,0,0,0-.05-0.13,0.72,0.72,0,0,0-.41-0.15,2.27,2.27,0,0,0-.64,0,2.67,2.67,0,0,0-.68.18h-0.13a6,6,0,0,1,.42-0.61l0.43-.57a2.93,2.93,0,0,0,.23-1.09,2.25,2.25,0,0,0-.28-1,2.7,2.7,0,0,0-1.12-1l-0.53-.27a2.32,2.32,0,0,0-.66-0.22,1.46,1.46,0,0,0-.71.05,1.08,1.08,0,0,0-.58.53l-0.8,1.22-0.88,1.36q-0.52.8-1.08,1.77-1.34,0-3,.06l-3.8.12a1,1,0,0,0-.53.08,1.44,1.44,0,0,0-.4.3,1.07,1.07,0,0,0-.25.6,1.84,1.84,0,0,1,0,.36,1.77,1.77,0,0,0,0,.49,1.34,1.34,0,0,0,.17.48,0.48,0.48,0,0,0,.4.24l1.77-.13,1.93-.16,2.37-.19q-1.38,2.42-2.76,5.22a46.3,46.3,0,0,0-2.28,5.43c-0.11.31-.2,0.61-0.29,0.91s-0.21.36-.36,0.63a21.13,21.13,0,0,1-1.22,1.94,18.1,18.1,0,0,1-1.82,2.2,7.42,7.42,0,0,1-2.4,1.69,1.31,1.31,0,0,1-.7.18,0.72,0.72,0,0,1-.5-0.16,1,1,0,0,1-.32-0.67,4.63,4.63,0,0,1,.45-2.35,22.52,22.52,0,0,1,1.87-3.37,43,43,0,0,1,4.15-5.18,2.51,2.51,0,0,0,.38-0.92,2.65,2.65,0,0,0,0-.91,1.88,1.88,0,0,0-.68-1c-0.13-.11-0.28-0.22-0.45-0.35a1.52,1.52,0,0,0-.6-0.25,1.81,1.81,0,0,0-.69,0,1.26,1.26,0,0,0-.68.45,0.51,0.51,0,0,0-.16.19,4.13,4.13,0,0,1-.41.52l-0.8.91-1.67,1.86-2.14,2.39q-1.15,1.29-2.18,2.48,1-1.64,2.58-3.82t3.73-5.15a2.52,2.52,0,0,0,.38-0.92,2.68,2.68,0,0,0,0-.91,1.87,1.87,0,0,0-.68-1l-0.54-.43a3.15,3.15,0,0,0-.81-0.43,2.84,2.84,0,0,0-.9-0.18,1,1,0,0,0-.78.37,78.9,78.9,0,0,0-5.21,8.71,35.27,35.27,0,0,0-1.6,3.48,21.79,21.79,0,0,0-.88,2.77c-0.18.27-.36,0.56-0.57,0.86a18.29,18.29,0,0,1-1.82,2.21A7.42,7.42,0,0,1,159,187a1.31,1.31,0,0,1-.7.18,0.72,0.72,0,0,1-.5-0.16,1,1,0,0,1-.32-0.67,1.32,1.32,0,0,1,0-.49,6.4,6.4,0,0,1,.11-0.68,8.28,8.28,0,0,1,.3-1,0.45,0.45,0,0,0,.35.22,1.36,1.36,0,0,0,.42-0.05,1.41,1.41,0,0,0,.43-0.21q0.21-.24,1-1t1.69-1.64l2.33-2.26a6.47,6.47,0,0,0,1.12-1.46,5.42,5.42,0,0,0,.43-1.06,1.2,1.2,0,0,0,0-.85,9,9,0,0,0-.87-1.88,6.56,6.56,0,0,0-.91-1.16,4.41,4.41,0,0,0-1-.68A1.49,1.49,0,0,0,162,172a1.43,1.43,0,0,0-.81.48c-0.67.78-1.26,1.55-1.83,2.31a1,1,0,0,0-.28.3l-0.65.89a10.65,10.65,0,0,1-.93,1.07,5.17,5.17,0,0,1-1.18.91,0.47,0.47,0,0,1-.26.11,0.27,0.27,0,0,1-.33-0.2,2,2,0,0,0,.24-0.44,3.91,3.91,0,0,1,.19-0.44s0.16-.28.41-0.74a13.33,13.33,0,0,0,.71-1.59,10.41,10.41,0,0,0,.5-1.75,1.31,1.31,0,0,0-.22-1.23,1.55,1.55,0,0,0-1.66-.53,2.33,2.33,0,0,0-1.25,1.5,9.3,9.3,0,0,0-.36,1.18,8.73,8.73,0,0,0-.23,1.11q-0.09.61-.14,1.1,0,0.76,0,1.41a2.21,2.21,0,0,0,.36,1.2q-0.31.65-.58,1.27T153.14,181q-0.4.65-.9,1.42T151.17,184a17.56,17.56,0,0,1-1.25,1.56,12.47,12.47,0,0,1-1.4,1.35,4.7,4.7,0,0,1-.68.5,7.7,7.7,0,0,1-.69.36,1.3,1.3,0,0,1-.7.18,0.71,0.71,0,0,1-.5-0.16,1,1,0,0,1-.32-0.67,4.64,4.64,0,0,1,.45-2.35,22.49,22.49,0,0,1,1.87-3.37,42.87,42.87,0,0,1,4.15-5.18,2.52,2.52,0,0,0,.38-0.92,2.63,2.63,0,0,0,0-.91,1.88,1.88,0,0,0-.67-1c-0.13-.11-0.28-0.23-0.45-0.35a1.53,1.53,0,0,0-.57-0.25,1.67,1.67,0,0,0-.67,0,1.25,1.25,0,0,0-.68.45,41.29,41.29,0,0,0-4.33,6.11,23.33,23.33,0,0,0-1.26,2.59,12.61,12.61,0,0,0-.61,1.94l-0.37.54q-0.63.89-1.42,1.89a12.78,12.78,0,0,1-1.72,1.78,3,3,0,0,1-.64.4,0.4,0.4,0,0,1-.43,0,1,1,0,0,1-.26-0.76,8.35,8.35,0,0,1,1-3.59q0.46-1.06,1.26-2.54m-3.4-.11a10.46,10.46,0,0,1-.86,2q-0.59,1.09-1.25,2.12t-1.29,1.9q-0.63.87-1,1.34a1.75,1.75,0,0,1-.56.26,0.5,0.5,0,0,1-.43-0.08,0.9,0.9,0,0,1-.29-0.63,4.45,4.45,0,0,1,.35-2,23,23,0,0,1,1.42-2.82,29.12,29.12,0,0,1,3.23-4.34,0.83,0.83,0,0,1,.83.7,3.4,3.4,0,0,1-.16,1.53M228.59,180a9.31,9.31,0,0,1-.54.84,1.52,1.52,0,0,1-.82-0.21,0.78,0.78,0,0,1-.25-0.34,0.59,0.59,0,0,1,.1-0.45,3.72,3.72,0,0,1,2-1.13,5.41,5.41,0,0,1-.51,1.29m-1.52-4.08a0.13,0.13,0,0,0,0-.09,0.18,0.18,0,0,0,0-.06l0.49-.89c0.13-.23.26-0.46,0.37-0.7s0.27-.5.45-0.81l0.79-1.35a23.24,23.24,0,0,1,.28,3.17,16.31,16.31,0,0,1-.14,2.4,11.48,11.48,0,0,0-2.4.46,5.64,5.64,0,0,0-1.45.69c0.49-.82,1-1.75,1.59-2.82m-6,.21a39.52,39.52,0,0,1,3.29-4.16,1.13,1.13,0,0,1-.1,1.39,14.13,14.13,0,0,1-1.43,2.09,26,26,0,0,1-1.92,2.12l-1.52,1.49a21.68,21.68,0,0,1,1.68-2.93M208.5,170a0.51,0.51,0,0,1,.16-0.28,0.52,0.52,0,0,1,.13-0.1,0.3,0.3,0,0,1,.14.37,2.2,2.2,0,0,1-.24.66,9,9,0,0,1-.51.93Zm-48.69,10.58a39.93,39.93,0,0,1,3.29-4.16,1.13,1.13,0,0,1-.1,1.39,14.14,14.14,0,0,1-1.43,2.09,25.87,25.87,0,0,1-1.92,2.12l-1.52,1.49a21.71,21.71,0,0,1,1.68-2.93m-3.32-7.29a0.34,0.34,0,0,1,.1-0.14l0.1-.1,0.08-.1c0.12,0,.16.13,0.13,0.32a2.16,2.16,0,0,1-.24.66,8.67,8.67,0,0,1-.51.93Z" transform="translate(-13.69 -34.56)"/></g></g></svg>