<?xml version="1.0" encoding="UTF-8"?>
<svg id="Layer_2" data-name="Layer 2" xmlns="http://www.w3.org/2000/svg" viewBox="0 0 310 106">
  <defs>
    <style>
      .cls-1 {
        fill: #fff;
      }

      .cls-1, .cls-2 {
        stroke-width: 0px;
      }

      .cls-2 {
        fill: #ff504d;
      }
    </style>
  </defs>
  <g id="Layer_1-2" data-name="Layer 1">
    <g id="Layer_1-3" data-name="Layer 1">
      <path class="cls-2" d="M22.7,12.5h260.6c5.4,0,9.7,4.3,9.7,9.7v55.6c0,5.4-4.3,9.7-9.7,9.7H22.7c-5.4,0-9.7-4.3-9.7-9.7V22.2c0-5.4,4.3-9.7,9.7-9.7Z"/>
      <path class="cls-1" d="M103.1,62.2v-24.2h8.5c2.4-.1,4.7.5,6.7,1.7,2.3,2,2.9,5.4,1.3,8.1-.6.9-1.5,1.6-2.5,2,1.1.3,2.2.9,2.9,1.8.7,1,1.1,2.2,1.1,3.5.1,2-.7,4-2.2,5.3-1.9,1.3-4.1,1.9-6.4,1.8h-9.4ZM108.1,48.1h3.7c2.5,0,3.8-1,3.8-3,0-.9-.3-1.7-1-2.3-.9-.6-1.9-.9-3-.8h-3.5v6.1ZM108.1,51.7v6.5h4.3c1,.1,2-.3,2.7-.9.7-.5,1.1-1.4,1-2.3,0-2.2-1.1-3.3-3.4-3.3h-4.6Z"/>
      <path class="cls-1" d="M123.8,53c0-1.6.3-3.2,1-4.7.7-1.4,1.7-2.5,3-3.3,1.4-.8,2.9-1.1,4.5-1.1,2.2-.1,4.3.7,5.9,2.2,1.6,1.6,2.5,3.8,2.6,6.1v1.2c.1,2.4-.7,4.8-2.3,6.6-1.6,1.7-3.9,2.6-6.2,2.5-2.3.1-4.6-.8-6.2-2.5-1.6-1.6-2.3-3.9-2.3-6.7v-.3ZM128.6,53.4c-.1,1.4.2,2.7.9,3.9.7.9,1.7,1.4,2.8,1.3,1.1.1,2.1-.4,2.7-1.3.7-.9,1-2.3,1-4.3.1-1.4-.3-2.7-1-3.9-.6-.9-1.6-1.4-2.7-1.3-1.1-.1-2.1.4-2.8,1.3-.7,1.3-1,2.8-.9,4.3Z"/>
      <path class="cls-1" d="M143,53c0-1.6.3-3.2,1-4.7.7-1.4,1.7-2.5,3-3.3,1.4-.7,2.9-1.1,4.5-1.1,2.2-.1,4.3.7,5.9,2.2,1.6,1.6,2.5,3.8,2.6,6.1v1.2c.1,2.4-.7,4.8-2.3,6.6-1.6,1.7-3.9,2.6-6.2,2.5-2.3.1-4.6-.8-6.2-2.5-1.6-1.9-2.4-4.3-2.3-6.7v-.3ZM147.8,53.4c-.1,1.4.2,2.7,1,3.9,1.2,1.5,3.4,1.7,4.9.5.2-.1.3-.3.5-.5.7-.9,1-2.3,1-4.3.1-1.4-.3-2.7-1-3.9-1.2-1.5-3.4-1.7-4.9-.5-.2.1-.3.3-.5.5-.8,1.3-1.1,2.8-1,4.3Z"/>
      <path class="cls-1" d="M169.5,55l-1.7,1.7v5.5h-4.8v-25.5h4.8v14.1l.9-1.2,4.6-5.4h5.8l-6.5,7.5,7,10.5h-5.5l-4.6-7.2Z"/>
      <path class="cls-1" d="M209.6,62.2h-5l-9.7-15.9v15.9h-5v-24.2h5l9.7,16v-16h5v24.2Z"/>
      <path class="cls-1" d="M212.9,53c0-1.6.3-3.2,1-4.7.7-1.3,1.7-2.5,2.9-3.3,1.4-.7,2.9-1.1,4.5-1.1,2.2-.1,4.4.7,6,2.2,1.6,1.6,2.5,3.8,2.5,6.1v1.2c.1,2.4-.7,4.8-2.3,6.6-1.6,1.7-3.9,2.6-6.2,2.5-2.3.1-4.6-.8-6.2-2.5-1.6-1.6-2.3-3.9-2.3-6.7l.1-.3ZM217.6,53.4c-.1,1.4.3,2.7,1,3.9.7.9,1.7,1.4,2.8,1.3,1.1,0,2.1-.4,2.7-1.3.7-1.3,1.1-2.8,1-4.3,0-1.4-.3-2.7-1-3.9-.7-.9-1.7-1.4-2.8-1.3-1.1,0-2.1.4-2.7,1.3-.7,1.3-1.1,2.8-1,4.3Z"/>
      <path class="cls-1" d="M248.4,55.7l2.4-11.5h4.6l-4.5,18h-4.1l-3.4-11.3-3.4,11.3h-4l-4.6-18h4.7l2.3,11.4,3.3-11.4h3.5l3.2,11.5Z"/>
      <path class="cls-1" d="M78.3,36.1h-1.8v-3.5h-3.5v3.5h-14.1v-3.5h-3.6v3.5h-1.7c-1.9,0-3.5,1.6-3.5,3.5v24.8c.1,1.9,1.7,3.5,3.6,3.5h24.7c1.9,0,3.5-1.6,3.5-3.5v-24.7c0-2-1.6-3.6-3.6-3.6ZM78.3,64.4h-24.7v-19.4h24.7v19.4ZM57.1,48.5h8.8v8.8h-8.8v-8.8Z"/>
    </g>
  </g>
</svg>